<svg width="72" height="72" viewBox="0 0 72 72" fill="none" xmlns="http://www.w3.org/2000/svg">
<path d="M58.05 30.12C56.01 19.77 46.92 12 36 12C27.33 12 19.8 16.92 16.05 24.12C7.02 25.08 0 32.73 0 42C0 51.93 8.07 60 18 60H57C65.28 60 72 53.28 72 45C72 37.08 65.85 30.66 58.05 30.12ZM57 54H18C11.37 54 6 48.63 6 42C6 35.85 10.59 30.72 16.68 30.09L19.89 29.76L21.39 26.91C24.24 21.42 29.82 18 36 18C43.86 18 50.64 23.58 52.17 31.29L53.07 35.79L57.66 36.12C62.34 36.42 66 40.35 66 45C66 49.95 61.95 54 57 54ZM30 42.54L23.73 36.27L19.5 40.5L30 51L48.03 32.97L43.8 28.74L30 42.54Z" fill="#2F80ED"/>
</svg>
