<svg width="1440" height="890" viewBox="0 0 1440 890" fill="none" xmlns="http://www.w3.org/2000/svg">
<rect width="1720" height="890" transform="translate(-140)" fill="white"/>
<g opacity="0.25" clip-path="url(#clip0_882_37920)">
<path d="M1220.61 285.232C1221.81 288.463 1223.62 290.711 1225.2 293.598" stroke="#F2C69F" stroke-width="6.21722" stroke-linecap="round" stroke-linejoin="round"/>
<path d="M1233.7 296.554C1235.48 297.025 1237.27 297.496 1239.06 297.967" stroke="#F2C69F" stroke-width="6.21722" stroke-linecap="round" stroke-linejoin="round"/>
<path d="M1250.98 292.521C1253.33 291.233 1255.68 289.944 1258.03 288.656" stroke="#F2C69F" stroke-width="6.21722" stroke-linecap="round" stroke-linejoin="round"/>
<path d="M1261.84 276.777C1261.18 274.613 1260.6 272.426 1259.52 270.438" stroke="#F2C69F" stroke-width="6.21722" stroke-linecap="round" stroke-linejoin="round"/>
<path d="M1253.55 259.563C1251.4 258.615 1249.36 257.501 1247.28 256.477" stroke="#F2C69F" stroke-width="6.21722" stroke-linecap="round" stroke-linejoin="round"/>
<path d="M1237.9 254.004C1234.37 255.937 1230.84 257.87 1227.31 259.803" stroke="#F2C69F" stroke-width="6.21722" stroke-linecap="round" stroke-linejoin="round"/>
<path d="M1223.43 267.368C1222.53 270.056 1221.2 272.522 1220.9 275.287" stroke="#F2C69F" stroke-width="6.21722" stroke-linecap="round" stroke-linejoin="round"/>
<path d="M1316.66 711.765C1310.39 738.684 1319.57 784.771 1342.21 802.441C1350.18 808.658 1367.47 816.699 1377.85 812.978C1388.43 809.184 1391.67 795.774 1392.17 786.184C1392.87 772.726 1383.18 758.884 1375.21 748.796C1367.25 738.731 1357.8 740.374 1348.71 747.464C1337.61 756.116 1328.61 766.675 1318.69 776.577C1315.45 779.809 1314.23 779.694 1310.26 778.428" stroke="#F2C69F" stroke-width="13.2679" stroke-linecap="round" stroke-linejoin="round"/>
<path d="M255.25 111.476C246.464 110.18 237.733 108.608 230.17 103.639C227.893 102.144 220.885 100.804 223.201 99.3698C227.149 96.9262 234.515 97.3071 239.052 96.6107C244.92 95.7097 246.903 94.8816 251.861 91.5243C261.395 85.069 260.796 88.613 254.9 97.0321C251.87 101.359 245.081 113.116 239.702 115.112C231.675 118.092 236.437 83.5633 234.695 79.5447C231.511 72.1982 243.632 92.8448 248.503 99.1997C251.47 103.072 250.897 107.052 252.289 111.084" stroke="#BBD8FF" stroke-width="3.36083" stroke-linecap="round" stroke-linejoin="round"/>
<path d="M24.2692 574.509C17.8745 580.671 11.2934 586.621 2.739 589.571C0.163516 590.459 -5.18036 595.188 -4.8996 592.478C-4.42111 587.86 0.38236 582.262 2.60344 578.246C5.47681 573.05 6.03321 570.975 6.40621 564.998C7.1234 553.506 9.56251 556.146 12.6227 565.959C14.1953 571.002 19.352 583.56 17.6452 589.038C15.098 597.212 -9.32161 572.341 -13.5669 571.264C-21.3275 569.294 2.42212 572.319 10.4288 572.347C15.3072 572.365 18.1075 575.251 22.1492 576.614" stroke="#BBD8FF" stroke-width="3.36083" stroke-linecap="round" stroke-linejoin="round"/>
<path d="M81.6042 78.4797C82.7895 74.3255 82.6308 70.7152 83.1719 66.6234" stroke="#F2C69F" stroke-width="7.79426" stroke-linecap="round" stroke-linejoin="round"/>
<path d="M76.7709 57.3323C75.3137 55.5312 73.8566 53.7301 72.3994 51.9289" stroke="#F2C69F" stroke-width="7.79426" stroke-linecap="round" stroke-linejoin="round"/>
<path d="M56.3105 48.5957C52.9782 48.1551 49.6458 47.7145 46.3134 47.2738" stroke="#F2C69F" stroke-width="7.79426" stroke-linecap="round" stroke-linejoin="round"/>
<path d="M33.6558 56.457C32.7242 59.1391 31.6813 61.7739 31.3087 64.5912" stroke="#F2C69F" stroke-width="7.79426" stroke-linecap="round" stroke-linejoin="round"/>
<path d="M29.271 80.0051C30.7408 82.5571 31.982 85.1992 33.3289 87.7798" stroke="#F2C69F" stroke-width="7.79426" stroke-linecap="round" stroke-linejoin="round"/>
<path d="M40.979 97.236C45.9775 97.8969 50.9761 98.5578 55.9746 99.2188" stroke="#F2C69F" stroke-width="7.79426" stroke-linecap="round" stroke-linejoin="round"/>
<path d="M65.5059 94.4466C68.4162 92.4025 71.5819 90.891 73.9443 88.3242" stroke="#F2C69F" stroke-width="7.79426" stroke-linecap="round" stroke-linejoin="round"/>
<path d="M1657.02 467.59C1620.32 486.901 1582.07 503.27 1544.32 520.389C1544.81 518.033 1543.3 515.073 1543.25 512.745C1543.18 509.573 1541.98 505.558 1540.92 502.629C1537.62 493.586 1535.19 484.3 1532.1 475.189C1528.93 465.813 1525.9 456.337 1523.87 446.645C1519.56 425.997 1514.62 405.373 1511.03 384.579C1509.08 373.304 1507.32 361.988 1505.48 350.696C1505.06 348.143 1503.97 344.27 1504.24 341.484C1504.31 340.753 1504.38 340.426 1505.2 340.661C1507.81 341.417 1510.36 343.51 1512.72 344.885C1514.53 345.936 1516.5 346.877 1518.16 348.165C1524.73 353.279 1533 356.236 1540.29 360.159C1573.68 378.108 1606.26 397.601 1639.48 415.852C1654.83 424.285 1670.76 431.882 1687.11 438.19C1691.02 439.698 1695.08 440.896 1698.94 442.543C1699.94 442.973 1699.87 442.927 1699.05 443.387C1684.92 451.249 1671.33 460.056 1657.02 467.59Z" stroke="#E0BBEE" stroke-width="8.34877" stroke-linecap="round" stroke-linejoin="round"/>
<path d="M132.399 692.322C132.227 650.856 135.385 609.366 137.642 567.984C139.506 569.507 142.829 569.533 144.917 570.564C147.762 571.969 151.877 572.761 154.967 573.168C164.509 574.427 173.87 576.556 183.374 578.033C193.154 579.551 202.96 581.239 212.491 583.921C232.796 589.636 253.369 594.783 273.471 601.204C284.371 604.686 295.217 608.358 306.084 611.94C308.541 612.75 312.48 613.57 314.826 615.096C315.443 615.496 315.699 615.712 315.114 616.326C313.234 618.298 310.203 619.586 307.89 621.049C306.123 622.167 304.377 623.483 302.469 624.356C294.897 627.821 288.454 633.787 281.605 638.445C250.263 659.757 217.921 679.647 186.383 700.679C171.813 710.396 157.716 721.01 144.568 732.595C141.425 735.365 138.483 738.417 135.242 741.073C134.396 741.767 134.47 741.725 134.444 740.78C133.999 724.618 132.466 708.5 132.399 692.322Z" stroke="#E0BBEE" stroke-width="8.34877" stroke-linecap="round" stroke-linejoin="round"/>
<path d="M138.148 108.518C142.195 106.862 145.655 107.309 149.885 107.964" stroke="#B1E0C5" stroke-width="4.09126" stroke-linecap="round" stroke-linejoin="round"/>
<path d="M156.165 108.369C158.213 109.537 159.956 110.621 161.626 112.05" stroke="#B1E0C5" stroke-width="4.09126" stroke-linecap="round" stroke-linejoin="round"/>
<path d="M165.042 116.961C165.951 119.006 166.785 121.022 166.957 123.238" stroke="#B1E0C5" stroke-width="4.09126" stroke-linecap="round" stroke-linejoin="round"/>
<path d="M163.965 139.892C163.511 140.939 163.057 141.985 162.603 143.032" stroke="#B1E0C5" stroke-width="4.09126" stroke-linecap="round" stroke-linejoin="round"/>
<path d="M166.962 130.199C166.735 131.109 166.508 132.019 166.281 132.929" stroke="#B1E0C5" stroke-width="4.09126" stroke-linecap="round" stroke-linejoin="round"/>
<path d="M152.371 149.181C149.189 148.91 145.927 148.734 142.817 147.959" stroke="#B1E0C5" stroke-width="4.09126" stroke-linecap="round" stroke-linejoin="round"/>
<path d="M133.942 144.007C131.983 142.937 129.981 141.975 128.48 140.326" stroke="#B1E0C5" stroke-width="4.09126" stroke-linecap="round" stroke-linejoin="round"/>
<path d="M125.063 133.095C125.212 130.793 125.595 128.633 126.15 126.406" stroke="#B1E0C5" stroke-width="4.09126" stroke-linecap="round" stroke-linejoin="round"/>
<path d="M127.1 117.943C127.691 117.124 128.281 116.304 128.872 115.485" stroke="#B1E0C5" stroke-width="4.09126" stroke-linecap="round" stroke-linejoin="round"/>
<path d="M1411.32 430.817C1411.35 431.888 1411.7 433.741 1411.2 434.728" stroke="#BBD8FF" stroke-width="2.53109" stroke-linecap="round" stroke-linejoin="round"/>
<path d="M1409.78 437.582C1409.28 439.496 1408.24 441.043 1407.31 442.76" stroke="#BBD8FF" stroke-width="2.53109" stroke-linecap="round" stroke-linejoin="round"/>
<path d="M1403.77 447.205C1402.67 449.097 1401.98 450.336 1400.24 451.651" stroke="#BBD8FF" stroke-width="2.53109" stroke-linecap="round" stroke-linejoin="round"/>
<path d="M1395.88 453.654C1392.97 453.455 1390.01 453.263 1387.12 452.855" stroke="#BBD8FF" stroke-width="2.53109" stroke-linecap="round" stroke-linejoin="round"/>
<path d="M1382.92 450.664C1381.9 449.903 1380.84 449.255 1380.06 448.225" stroke="#BBD8FF" stroke-width="2.53109" stroke-linecap="round" stroke-linejoin="round"/>
<path d="M1378.26 443.462C1377.1 441.915 1377.36 440.561 1377.03 438.779" stroke="#BBD8FF" stroke-width="2.53109" stroke-linecap="round" stroke-linejoin="round"/>
<path d="M1378.29 432.992C1378.42 432.118 1378.71 431.432 1379.06 430.628" stroke="#BBD8FF" stroke-width="2.53109" stroke-linecap="round" stroke-linejoin="round"/>
<path d="M1384.5 420.923C1386.4 419.093 1388.39 416.57 1390.8 415.412" stroke="#BBD8FF" stroke-width="2.53109" stroke-linecap="round" stroke-linejoin="round"/>
<path d="M1394.51 413.899C1395.49 414.39 1396.43 414.903 1397.52 415.116C1397.9 415.19 1398.17 415.541 1398.5 415.48" stroke="#BBD8FF" stroke-width="2.53109" stroke-linecap="round" stroke-linejoin="round"/>
<path d="M1401.6 417.227C1402.87 418.144 1403.69 419.325 1404.62 420.562" stroke="#BBD8FF" stroke-width="2.53109" stroke-linecap="round" stroke-linejoin="round"/>
<path d="M1406.3 423.127C1407.78 424.193 1408.35 424.823 1409.03 426.422" stroke="#BBD8FF" stroke-width="2.53109" stroke-linecap="round" stroke-linejoin="round"/>
<path d="M24.6641 749.033C23.7007 748.564 21.897 748.016 21.2491 747.124" stroke="#BBD8FF" stroke-width="2.53109" stroke-linecap="round" stroke-linejoin="round"/>
<path d="M19.3741 744.546C17.9074 743.218 17.016 741.58 15.9261 739.958" stroke="#BBD8FF" stroke-width="2.53109" stroke-linecap="round" stroke-linejoin="round"/>
<path d="M13.6168 734.768C12.45 732.912 11.6664 731.734 11.3074 729.577" stroke="#BBD8FF" stroke-width="2.53109" stroke-linecap="round" stroke-linejoin="round"/>
<path d="M11.543 724.789C13.0659 722.296 14.6002 719.768 16.2992 717.39" stroke="#BBD8FF" stroke-width="2.53109" stroke-linecap="round" stroke-linejoin="round"/>
<path d="M20.1841 714.678C21.3308 714.124 22.3946 713.484 23.6668 713.272" stroke="#BBD8FF" stroke-width="2.53109" stroke-linecap="round" stroke-linejoin="round"/>
<path d="M28.7229 713.875C30.6329 713.557 31.7129 714.415 33.444 714.948" stroke="#BBD8FF" stroke-width="2.53109" stroke-linecap="round" stroke-linejoin="round"/>
<path d="M37.9971 718.733C38.709 719.258 39.1853 719.83 39.7379 720.508" stroke="#BBD8FF" stroke-width="2.53109" stroke-linecap="round" stroke-linejoin="round"/>
<path d="M45.8299 729.817C46.5734 732.349 47.8906 735.283 47.8039 737.954" stroke="#BBD8FF" stroke-width="2.53109" stroke-linecap="round" stroke-linejoin="round"/>
<path d="M47.4351 741.94C46.5429 742.588 45.6549 743.183 44.9642 744.049C44.7211 744.354 44.2856 744.43 44.1865 744.752" stroke="#BBD8FF" stroke-width="2.53109" stroke-linecap="round" stroke-linejoin="round"/>
<path d="M41.2055 746.693C39.8063 747.392 38.3787 747.576 36.8522 747.83" stroke="#BBD8FF" stroke-width="2.53109" stroke-linecap="round" stroke-linejoin="round"/>
<path d="M33.8056 748.132C32.1726 748.959 31.3502 749.174 29.6199 749.035" stroke="#BBD8FF" stroke-width="2.53109" stroke-linecap="round" stroke-linejoin="round"/>
<g opacity="0.3">
<path d="M1175.41 654.845C1170.41 652.454 1167.88 648.822 1164.89 644.289" stroke="#B1E0C5" stroke-width="5.18921" stroke-linecap="round" stroke-linejoin="round"/>
<path d="M1159.92 638.045C1159.27 635.125 1158.81 632.564 1158.73 629.776" stroke="#B1E0C5" stroke-width="5.18921" stroke-linecap="round" stroke-linejoin="round"/>
<path d="M1160.43 622.383C1161.58 619.787 1162.76 617.285 1164.7 615.235" stroke="#B1E0C5" stroke-width="5.18921" stroke-linecap="round" stroke-linejoin="round"/>
<path d="M1182.89 603.859C1184.27 603.394 1185.64 602.929 1187.01 602.464" stroke="#B1E0C5" stroke-width="5.18921" stroke-linecap="round" stroke-linejoin="round"/>
<path d="M1171.23 609.301C1172.28 608.739 1173.33 608.176 1174.38 607.614" stroke="#B1E0C5" stroke-width="5.18921" stroke-linecap="round" stroke-linejoin="round"/>
<path d="M1201.5 606.838C1203.96 610.06 1206.57 613.274 1208.49 616.857" stroke="#B1E0C5" stroke-width="5.18921" stroke-linecap="round" stroke-linejoin="round"/>
<path d="M1212.34 628.564C1213 631.316 1213.81 634.016 1213.54 636.832" stroke="#B1E0C5" stroke-width="5.18921" stroke-linecap="round" stroke-linejoin="round"/>
<path d="M1209.65 646.202C1207.36 648.024 1205.01 649.503 1202.44 650.879" stroke="#B1E0C5" stroke-width="5.18921" stroke-linecap="round" stroke-linejoin="round"/>
<path d="M1193.68 657.198C1192.41 657.341 1191.13 657.484 1189.86 657.627" stroke="#B1E0C5" stroke-width="5.18921" stroke-linecap="round" stroke-linejoin="round"/>
</g>
<g opacity="0.3">
<path d="M390.6 16.9115C395.947 18.3832 399.076 21.5122 402.817 25.4478" stroke="#B1E0C5" stroke-width="5.18921" stroke-linecap="round" stroke-linejoin="round"/>
<path d="M408.809 30.7188C409.962 33.4784 410.873 35.9172 411.443 38.6471" stroke="#B1E0C5" stroke-width="5.18921" stroke-linecap="round" stroke-linejoin="round"/>
<path d="M411.068 46.2246C410.397 48.9823 409.672 51.6538 408.129 54.0121" stroke="#B1E0C5" stroke-width="5.18921" stroke-linecap="round" stroke-linejoin="round"/>
<path d="M392.223 68.4191C390.956 69.1184 389.689 69.8177 388.422 70.517" stroke="#B1E0C5" stroke-width="5.18921" stroke-linecap="round" stroke-linejoin="round"/>
<path d="M402.741 61.0059C401.808 61.7441 400.876 62.4823 399.943 63.2205" stroke="#B1E0C5" stroke-width="5.18921" stroke-linecap="round" stroke-linejoin="round"/>
<path d="M373.383 68.7668C370.396 66.0289 367.256 63.3257 364.734 60.1378" stroke="#B1E0C5" stroke-width="5.18921" stroke-linecap="round" stroke-linejoin="round"/>
<path d="M358.883 49.2936C357.745 46.7015 356.48 44.1844 356.25 41.3652" stroke="#B1E0C5" stroke-width="5.18921" stroke-linecap="round" stroke-linejoin="round"/>
<path d="M358.419 31.4569C360.352 29.2602 362.41 27.3887 364.693 25.582" stroke="#B1E0C5" stroke-width="5.18921" stroke-linecap="round" stroke-linejoin="round"/>
<path d="M372.203 17.8182C373.431 17.4531 374.659 17.088 375.887 16.7229" stroke="#B1E0C5" stroke-width="5.18921" stroke-linecap="round" stroke-linejoin="round"/>
</g>
<g opacity="0.3">
<path d="M189.635 351.814C194.982 353.286 198.11 356.415 201.852 360.35" stroke="#B1E0C5" stroke-width="5.18921" stroke-linecap="round" stroke-linejoin="round"/>
<path d="M207.844 365.621C208.997 368.381 209.907 370.82 210.477 373.549" stroke="#B1E0C5" stroke-width="5.18921" stroke-linecap="round" stroke-linejoin="round"/>
<path d="M210.103 381.127C209.432 383.885 208.707 386.556 207.163 388.914" stroke="#B1E0C5" stroke-width="5.18921" stroke-linecap="round" stroke-linejoin="round"/>
<path d="M191.258 403.323C189.991 404.023 188.724 404.722 187.457 405.421" stroke="#B1E0C5" stroke-width="5.18921" stroke-linecap="round" stroke-linejoin="round"/>
<path d="M201.776 395.908C200.843 396.646 199.91 397.385 198.977 398.123" stroke="#B1E0C5" stroke-width="5.18921" stroke-linecap="round" stroke-linejoin="round"/>
<path d="M172.418 403.669C169.431 400.931 166.291 398.228 163.768 395.04" stroke="#B1E0C5" stroke-width="5.18921" stroke-linecap="round" stroke-linejoin="round"/>
<path d="M157.917 384.196C156.779 381.604 155.514 379.087 155.284 376.268" stroke="#B1E0C5" stroke-width="5.18921" stroke-linecap="round" stroke-linejoin="round"/>
<path d="M157.454 366.359C159.387 364.163 161.445 362.291 163.728 360.484" stroke="#B1E0C5" stroke-width="5.18921" stroke-linecap="round" stroke-linejoin="round"/>
<path d="M171.237 352.721C172.465 352.355 173.693 351.99 174.922 351.625" stroke="#B1E0C5" stroke-width="5.18921" stroke-linecap="round" stroke-linejoin="round"/>
</g>
<path opacity="0.3" d="M1434.59 576.472C1437.06 576.062 1446.94 576.146 1446.13 571.095C1445.78 568.875 1444.13 565.072 1441.73 566.359C1435.32 569.794 1433.21 571.946 1436.71 578.476" stroke="#33A787" stroke-width="2.07641" stroke-linecap="round" stroke-linejoin="round"/>
<path opacity="0.3" d="M53.172 547.886C52.3938 550.267 47.7527 558.993 52.6063 560.608C54.7399 561.318 58.8736 561.615 58.8411 558.893C58.7542 551.625 57.8238 548.753 50.4147 548.842" stroke="#33A787" stroke-width="2.07641" stroke-linecap="round" stroke-linejoin="round"/>
<path opacity="0.3" d="M1380.23 541.255C1385.56 543.332 1390.85 545.586 1396.04 548.006C1398.6 549.202 1400.93 550.637 1403.28 552.202C1404.41 552.956 1406.58 553.886 1407.56 554.919C1407.89 555.269 1403.55 556.177 1403.39 556.22C1397.52 557.838 1391.86 560.455 1386.13 562.526C1383.61 563.436 1380.8 565.128 1378.09 565.393C1377.54 565.447 1379.94 563.059 1380.06 562.924C1386.24 556.057 1391.7 548.547 1397.82 541.674C1398.31 541.131 1398.7 540.398 1399.07 539.779C1399.2 539.571 1399.61 538.528 1399.53 539.506C1399.21 542.977 1398.62 546.453 1398.1 549.898C1397.09 556.651 1395.44 563.461 1395.09 570.29C1395.04 571.153 1395.59 572.134 1395.15 572.883C1394.74 573.591 1394.32 571.457 1394.08 570.677C1391.03 560.944 1389.6 550.167 1383.15 541.931C1382.72 541.371 1381.67 540.802 1381.54 540.189" stroke="#F4ACAC" stroke-width="2.14023" stroke-linecap="round" stroke-linejoin="round"/>
<path opacity="0.3" d="M90.1897 664.076C85.8839 667.845 81.4372 671.502 76.8947 674.983C74.6511 676.703 72.3021 678.105 69.8298 679.464C68.6385 680.118 66.8119 681.61 65.4435 682.001C64.9802 682.133 66.1777 677.87 66.2121 677.71C67.4933 671.749 67.7858 665.525 68.5975 659.483C68.9537 656.832 68.7531 653.554 69.7697 651.03C69.9763 650.516 70.983 653.751 71.0467 653.921C74.2836 662.57 78.4232 670.879 81.688 679.488C81.946 680.168 82.4137 680.856 82.7911 681.471C82.918 681.678 83.6494 682.532 82.8227 682.002C79.8891 680.12 77.0804 677.988 74.2637 675.939C68.7422 671.922 63.4651 667.311 57.5731 663.841C56.8282 663.402 55.707 663.431 55.2429 662.702C54.8039 662.012 56.8903 662.625 57.6954 662.769C67.7349 664.563 77.9525 668.275 88.2369 666.362C88.9364 666.232 89.9219 665.57 90.5281 665.733" stroke="#F4ACAC" stroke-width="2.14023" stroke-linecap="round" stroke-linejoin="round"/>
<path opacity="0.3" d="M1278.76 540.953C1276.05 534.994 1271.26 527.907 1264.55 526.224C1260.79 525.281 1261.44 532.175 1262.22 534.068C1263.18 536.383 1265.83 539.097 1268.53 539.142C1270.82 539.18 1272.88 537.271 1274.78 536.168C1275.62 535.681 1276.25 535.034 1277.24 535.282" stroke="#E0BBEE" stroke-width="3.21034" stroke-linecap="round" stroke-linejoin="round"/>
<path opacity="0.3" d="M124.519 551.949C131.054 552.304 139.551 551.333 144.146 546.155C146.72 543.254 140.303 540.652 138.263 540.47C135.77 540.247 132.137 541.344 130.85 543.717C129.755 545.735 130.498 548.442 130.601 550.633C130.646 551.601 130.927 552.461 130.25 553.223" stroke="#E0BBEE" stroke-width="3.21034" stroke-linecap="round" stroke-linejoin="round"/>
<path opacity="0.3" d="M1303.86 605.22C1312.74 605.755 1321.27 604.846 1330.12 604.344C1332.05 604.235 1336.46 603.707 1332.66 605.159C1327.44 607.158 1322.48 610.684 1318.61 614.694C1318.14 615.179 1313.56 622.418 1313.07 622.294C1311.63 621.934 1312.82 611.759 1312.45 609.941C1311.97 607.507 1312.11 605.711 1312.4 603.043C1312.63 600.899 1312.91 594.866 1314.51 600.039C1315.77 604.134 1317.07 608.253 1319.22 611.992C1320.4 614.06 1321.76 616.692 1323.32 618.406C1327.12 622.598 1315.85 609.75 1311.26 606.432" stroke="#FFE9A7" stroke-width="6.15682" stroke-linecap="round" stroke-linejoin="round"/>
<path opacity="0.3" d="M308.024 110.064C299.19 111.103 290.959 113.5 282.33 115.555C280.452 116.003 276.202 117.3 279.684 115.201C284.477 112.312 288.733 107.968 291.836 103.338C292.211 102.779 295.444 94.8453 295.952 94.88C297.43 94.981 298.058 105.206 298.735 106.931C299.642 109.242 299.823 111.034 300.005 113.712C300.152 115.863 300.946 121.85 298.46 117.04C296.493 113.232 294.49 109.406 291.717 106.105C290.183 104.278 288.384 101.927 286.55 100.514C282.063 97.0589 295.422 107.718 300.525 110.175" stroke="#FFE9A7" stroke-width="6.15682" stroke-linecap="round" stroke-linejoin="round"/>
<path opacity="0.3" d="M55.4041 531.877C50.8276 539.504 47.6945 547.484 44.0483 555.57C43.2547 557.33 41.6837 561.487 42.1506 557.448C42.7931 551.888 41.9557 545.865 40.1879 540.579C39.9743 539.941 35.6706 532.533 36.0085 532.152C36.9916 531.044 45.4686 536.797 47.2481 537.315C49.631 538.009 51.1599 538.961 53.3914 540.453C55.1838 541.652 60.4073 544.683 55.0809 543.71C50.8649 542.941 46.6124 542.188 42.3043 542.365C39.9213 542.463 36.9607 542.45 34.7218 543.038C29.2448 544.478 45.8463 540.418 50.9094 537.881" stroke="#FFE9A7" stroke-width="6.15682" stroke-linecap="round" stroke-linejoin="round"/>
<path opacity="0.3" d="M1060.46 670.874C1040.53 668.43 1019.25 673.916 1011.44 694.028C1008.01 702.856 1012.34 711.151 1017.77 718.212C1024.53 727.004 1032.75 733.517 1043 737.795C1052.73 741.858 1063.2 744.793 1073.53 746.837C1081.07 748.328 1087.09 746.518 1091.11 739.612C1096.32 730.677 1098.35 717.622 1097.73 707.282C1097.02 695.549 1090.87 686.54 1079.36 683.28C1075.87 682.29 1072.31 680.938 1068.73 680.396C1065.59 679.923 1062.29 680.205 1059.23 679.339" stroke="#FFE9A7" stroke-width="4.5218" stroke-linecap="round" stroke-linejoin="round"/>
<path opacity="0.3" d="M475.496 4.62923C495.545 3.52054 515.522 -5.63008 519.667 -26.8049C521.487 -36.0985 515.761 -43.4998 509.17 -49.4933C500.963 -56.9549 491.722 -61.9173 480.884 -64.3216C470.589 -66.6053 459.767 -67.6491 449.235 -67.8395C441.552 -67.9784 435.947 -65.1363 433.202 -57.6281C429.65 -47.9145 429.958 -34.7071 432.391 -24.6383C435.152 -13.2138 442.797 -5.43019 454.698 -4.24972C458.313 -3.89118 462.053 -3.18727 465.678 -3.28678C468.85 -3.37383 472.045 -4.23305 475.208 -3.91933" stroke="#FFE9A7" stroke-width="4.5218" stroke-linecap="round" stroke-linejoin="round"/>
<path opacity="0.3" d="M-28.0202 153.891C-16.6444 137.344 -11.6785 115.94 -25.9053 99.7179C-32.1495 92.598 -41.507 92.6068 -50.2794 94.1613C-61.2007 96.0965 -70.7761 100.378 -79.3032 107.488C-87.4024 114.241 -94.8422 122.168 -101.429 130.388C-106.235 136.384 -107.411 142.558 -103.146 149.319C-97.628 158.067 -86.9859 165.895 -77.5294 170.123C-66.7994 174.92 -55.9663 173.625 -47.7586 164.927C-45.2657 162.285 -42.4226 159.755 -40.2857 156.824C-38.4163 154.261 -37.1438 151.207 -34.9625 148.895" stroke="#FFE9A7" stroke-width="4.5218" stroke-linecap="round" stroke-linejoin="round"/>
<path d="M1312 75.8553C1307.84 64.6695 1304.84 51.8162 1298.4 41.6915C1295.26 36.7481 1290.78 32.6377 1284.7 33.2855C1276.53 34.1573 1272.79 42.1825 1274.09 49.7896C1275.69 59.0754 1288.27 54.5378 1291.78 49.6589C1294.77 45.5077 1296.57 40.5321 1297.76 35.6098C1300.3 25.1072 1301.68 14.02 1302.43 3.24875C1302.79 -1.85872 1304.34 -12.9897 1300.06 -16.853" stroke="#E0BBEE" stroke-width="5.19618" stroke-linecap="round" stroke-linejoin="round"/>
<path d="M1477.8 161.218C1510.24 159.12 1542.43 144.007 1548.82 109.672C1551.62 94.6031 1542.24 82.7108 1531.48 73.1102C1518.09 61.1578 1503.06 53.2662 1485.48 49.539C1468.78 45.9988 1451.25 44.4733 1434.2 44.3247C1421.76 44.2164 1412.74 48.9012 1408.41 61.0948C1402.8 76.8701 1403.5 98.2418 1407.59 114.501C1412.23 132.95 1424.73 145.432 1444.01 147.162C1449.86 147.688 1455.93 148.77 1461.79 148.555C1466.92 148.366 1472.08 146.927 1477.21 147.386" stroke="#FFE9A7" stroke-width="7.31888" stroke-linecap="round" stroke-linejoin="round"/>
<g opacity="0.3">
<path d="M1405.18 177.085C1407.66 183.156 1406.98 188.343 1406 194.687" stroke="#B1E0C5" stroke-width="6.13506" stroke-linecap="round" stroke-linejoin="round"/>
<path d="M1405.38 204.102C1403.63 207.172 1402 209.784 1399.85 212.287" stroke="#B1E0C5" stroke-width="6.13506" stroke-linecap="round" stroke-linejoin="round"/>
<path d="M1392.48 217.402C1389.42 218.763 1386.39 220.011 1383.07 220.266" stroke="#B1E0C5" stroke-width="6.13506" stroke-linecap="round" stroke-linejoin="round"/>
<path d="M1358.1 215.756C1356.53 215.074 1354.96 214.391 1353.39 213.708" stroke="#B1E0C5" stroke-width="6.13506" stroke-linecap="round" stroke-linejoin="round"/>
<path d="M1372.63 220.262C1371.27 219.92 1369.9 219.579 1368.54 219.238" stroke="#B1E0C5" stroke-width="6.13506" stroke-linecap="round" stroke-linejoin="round"/>
<path d="M1344.19 198.358C1344.6 193.585 1344.86 188.694 1346.03 184.032" stroke="#B1E0C5" stroke-width="6.13506" stroke-linecap="round" stroke-linejoin="round"/>
<path d="M1351.97 170.728C1353.58 167.793 1355.02 164.792 1357.5 162.543" stroke="#B1E0C5" stroke-width="6.13506" stroke-linecap="round" stroke-linejoin="round"/>
<path d="M1368.35 157.429C1371.8 157.655 1375.04 158.233 1378.37 159.068" stroke="#B1E0C5" stroke-width="6.13506" stroke-linecap="round" stroke-linejoin="round"/>
<path d="M1391.06 160.505C1392.29 161.392 1393.52 162.279 1394.75 163.167" stroke="#B1E0C5" stroke-width="6.13506" stroke-linecap="round" stroke-linejoin="round"/>
</g>
<g opacity="0.3">
<path d="M713.484 659.249C708.257 661.101 703.901 660.325 698.581 659.238" stroke="#B1E0C5" stroke-width="5.18921" stroke-linecap="round" stroke-linejoin="round"/>
<path d="M690.651 658.344C688.126 656.74 685.984 655.261 683.954 653.348" stroke="#B1E0C5" stroke-width="5.18921" stroke-linecap="round" stroke-linejoin="round"/>
<path d="M679.926 646.92C678.898 644.274 677.964 641.669 677.88 638.851" stroke="#B1E0C5" stroke-width="5.18921" stroke-linecap="round" stroke-linejoin="round"/>
<path d="M682.681 617.935C683.32 616.637 683.959 615.338 684.598 614.04" stroke="#B1E0C5" stroke-width="5.18921" stroke-linecap="round" stroke-linejoin="round"/>
<path d="M678.296 630.033C678.639 628.894 678.982 627.755 679.324 626.616" stroke="#B1E0C5" stroke-width="5.18921" stroke-linecap="round" stroke-linejoin="round"/>
<path d="M697.933 606.871C701.949 607.407 706.071 607.827 709.964 608.998" stroke="#B1E0C5" stroke-width="5.18921" stroke-linecap="round" stroke-linejoin="round"/>
<path d="M720.967 614.542C723.384 616.017 725.862 617.357 727.664 619.537" stroke="#B1E0C5" stroke-width="5.18921" stroke-linecap="round" stroke-linejoin="round"/>
<path d="M731.554 628.907C731.226 631.814 730.609 634.527 729.771 637.314" stroke="#B1E0C5" stroke-width="5.18921" stroke-linecap="round" stroke-linejoin="round"/>
<path d="M728.054 647.979C727.256 648.981 726.458 649.983 725.659 650.985" stroke="#B1E0C5" stroke-width="5.18921" stroke-linecap="round" stroke-linejoin="round"/>
</g>
<path opacity="0.3" d="M727.906 535.604C734.556 529.698 739.935 523.022 745.835 516.399C747.119 514.958 749.863 511.461 748.208 515.175C745.93 520.288 744.926 526.285 745.03 531.857C745.042 532.531 746.93 540.887 746.494 541.149C745.224 541.912 738.859 533.886 737.316 532.858C735.25 531.482 734.076 530.116 732.394 528.024C731.043 526.344 726.967 521.888 731.757 524.411C735.55 526.408 739.381 528.399 743.545 529.52C745.848 530.14 748.669 531.039 750.981 531.148C756.638 531.415 739.582 530.318 733.992 531.222" stroke="#FFE9A7" stroke-width="6.15682" stroke-linecap="round" stroke-linejoin="round"/>
<path opacity="0.3" d="M650.889 717.901C635.081 730.282 623.933 749.218 632.65 768.955C636.476 777.618 645.407 780.412 654.242 781.556C665.241 782.979 675.66 781.761 685.924 777.531C695.674 773.513 705.146 768.177 713.893 762.307C720.273 758.025 723.243 752.487 721.199 744.758C718.554 734.76 710.744 724.104 702.987 717.239C694.186 709.449 683.462 707.44 673.026 713.282C669.857 715.056 666.386 716.619 663.47 718.775C660.919 720.661 658.79 723.194 656.017 724.747" stroke="#FFE9A7" stroke-width="4.5218" stroke-linecap="round" stroke-linejoin="round"/>
<path d="M1019.89 110.773C1012.36 115.664 1005.21 116.09 996.43 116.391" stroke="#B1E0C5" stroke-width="8.39912" stroke-linecap="round" stroke-linejoin="round"/>
<path d="M983.612 117.98C979.032 116.411 975.102 114.893 971.185 112.65" stroke="#B1E0C5" stroke-width="8.39912" stroke-linecap="round" stroke-linejoin="round"/>
<path d="M962.414 104.057C959.796 100.282 957.341 96.5341 956.144 92.1315" stroke="#B1E0C5" stroke-width="8.39912" stroke-linecap="round" stroke-linejoin="round"/>
<path d="M955.791 57.3978C956.306 55.1126 956.82 52.8274 957.335 50.5423" stroke="#B1E0C5" stroke-width="8.39912" stroke-linecap="round" stroke-linejoin="round"/>
<path d="M953.465 78.0938C953.573 76.1714 953.682 74.249 953.79 72.3266" stroke="#B1E0C5" stroke-width="8.39912" stroke-linecap="round" stroke-linejoin="round"/>
<path d="M975.613 34.2171C982.136 33.5432 988.782 32.6464 995.351 33.0174" stroke="#B1E0C5" stroke-width="8.39912" stroke-linecap="round" stroke-linejoin="round"/>
<path d="M1014.77 37.5859C1019.13 38.9934 1023.53 40.1658 1027.19 42.916" stroke="#B1E0C5" stroke-width="8.39912" stroke-linecap="round" stroke-linejoin="round"/>
<path d="M1036.86 56.1894C1037.44 60.8889 1037.49 65.3911 1037.23 70.0957" stroke="#B1E0C5" stroke-width="8.39912" stroke-linecap="round" stroke-linejoin="round"/>
<path d="M1038.56 87.5278C1037.68 89.4067 1036.8 91.2857 1035.93 93.1647" stroke="#B1E0C5" stroke-width="8.39912" stroke-linecap="round" stroke-linejoin="round"/>
<path d="M757.881 -15.5547C758.26 -9.56938 758.663 -3.51086 758.61 2.48822" stroke="#BBD8FF" stroke-width="5.19618" stroke-linecap="round" stroke-linejoin="round"/>
<path d="M755.278 11.625C754.003 13.9081 752.97 16.2376 751.081 18.0933" stroke="#BBD8FF" stroke-width="5.19618" stroke-linecap="round" stroke-linejoin="round"/>
<path d="M741.872 23.0397C739.037 25.8258 736.211 25.658 732.673 26.8031" stroke="#BBD8FF" stroke-width="5.19618" stroke-linecap="round" stroke-linejoin="round"/>
<path d="M720.559 25.8086C718.743 25.7648 717.269 25.3652 715.541 24.8777" stroke="#BBD8FF" stroke-width="5.19618" stroke-linecap="round" stroke-linejoin="round"/>
<path d="M694.326 16.4136C690.091 13.0341 684.418 9.65635 681.415 5.06476" stroke="#BBD8FF" stroke-width="5.19618" stroke-linecap="round" stroke-linejoin="round"/>
<path d="M677.338 -2.06706C678.073 -4.20891 678.865 -6.25438 679.004 -8.52461C679.053 -9.32374 679.695 -9.96547 679.483 -10.623" stroke="#BBD8FF" stroke-width="5.19618" stroke-linecap="round" stroke-linejoin="round"/>
<path d="M839.531 31.1572C847.764 19.347 853.706 6.80732 860.487 -5.84631C861.964 -8.60035 864.96 -15.1398 863.76 -8.66908C862.107 0.237652 862.794 10.0568 865.064 18.7869C865.338 19.842 871.469 32.2796 870.881 32.8571C869.171 34.5376 856.119 24.3116 853.302 23.278C849.531 21.8938 847.168 20.1873 843.729 17.531C840.967 15.3975 832.867 9.9258 841.361 12.0848C848.084 13.7937 854.868 15.4795 861.844 15.6698C865.703 15.775 870.482 16.1237 874.162 15.4211C883.166 13.7021 855.909 18.4226 847.453 21.9595" stroke="#FFE9A7" stroke-width="9.96529" stroke-linecap="round" stroke-linejoin="round"/>
<path opacity="0.3" d="M405 31.0977C415.607 44.4803 441.425 57.7604 458.676 53.605C464.746 52.1427 475.281 46.8752 477.473 40.4242C479.709 33.846 474.468 27.1251 470.022 23.1964C463.783 17.683 453.363 17.0471 445.419 17.0235C437.494 16.9999 434.655 22.2006 434.586 29.3265C434.502 38.0214 436.15 46.4307 437.123 55.0371C437.44 57.8461 436.916 58.3919 434.776 59.8256" stroke="#F2C69F" stroke-width="8.19729" stroke-linecap="round" stroke-linejoin="round"/>
<path opacity="0.3" d="M62.4735 229.116C61.0482 231.511 59.5406 233.876 57.9623 236.174C57.1827 237.309 56.3064 238.313 55.3665 239.315C54.9136 239.798 54.2927 240.764 53.718 241.152C53.5234 241.283 53.4346 239.128 53.4264 239.049C53.1201 236.095 52.3161 233.168 51.7801 230.247C51.5449 228.966 50.9574 227.478 51.0472 226.155C51.0654 225.886 52.0198 227.232 52.075 227.302C54.8795 230.819 58.0508 234.042 60.8621 237.536C61.0843 237.813 61.4047 238.061 61.6723 238.289C61.7624 238.365 62.2299 238.65 61.767 238.529C60.1245 238.101 58.5018 237.537 56.888 237.013C53.7245 235.986 50.5847 234.648 47.332 233.929C46.9208 233.839 46.406 234.021 46.081 233.754C45.7736 233.5 46.8323 233.469 47.2269 233.414C52.1474 232.73 57.4398 232.907 61.914 230.469C62.2183 230.303 62.5749 229.848 62.8802 229.832" stroke="#F4ACAC" stroke-width="1.04252" stroke-linecap="round" stroke-linejoin="round"/>
</g>
<defs>
<clipPath id="clip0_882_37920">
<rect width="1720" height="890" fill="white" transform="translate(-113)"/>
</clipPath>
</defs>
</svg>
