<svg width="527" height="15" viewBox="0 0 527 15" fill="none" xmlns="http://www.w3.org/2000/svg">
<path d="M2 13C3.7414 10.4247 11.2875 8.59154 16.8595 8.31737C37.8903 7.28258 57.8343 2.93472 79.1158 2.46685C86.069 2.31399 93.0042 1.69193 99.9395 2.18957C104.928 2.54756 111.222 1.9649 114.86 4.18596C117.723 5.93436 119.011 8.23037 119.26 10.4247C119.441 12.0143 134.96 11.9373 136.864 11.922C150.796 11.8095 165.511 10.4528 179.209 9.1492C187.624 8.34835 196.317 8.11902 204.648 7.15281C212.288 6.26671 219.568 4.9118 227.404 4.43551C233.685 4.05374 243.933 2.3943 246.564 6.32098C248.431 9.10753 250.796 9.92557 256.654 9.92557C269.477 9.92557 283.266 8.89645 296.047 8.17873C314.465 7.14446 332.146 4.21682 350.629 3.43731C358.828 3.09152 367.087 2.43912 375.316 2.43912C379.375 2.43912 386.154 1.74484 388.787 3.8255C390.922 5.5122 387.794 8.58497 391.686 9.53738C394.548 10.2379 398.25 9.92557 401.346 9.92557C409.468 9.92557 417.59 9.92557 425.712 9.92557C439.312 9.92557 452.733 9.70719 466.178 8.6501C475.369 7.92757 484.731 6.71706 494.086 6.95872C502.92 7.1869 518.269 10.9077 525 7.43009" stroke="#E5616D" stroke-width="4" stroke-linecap="round"/>
</svg>
