<svg width="72" height="72" viewBox="0 0 72 72" fill="none" xmlns="http://www.w3.org/2000/svg">
<rect x="9.00073" y="16.5" width="54" height="39" rx="3" stroke="#A36BB2" stroke-width="6"/>
<mask id="path-2-outside-1_112_35429" maskUnits="userSpaceOnUse" x="12.2961" y="15.2821" width="46.9548" height="40.2348" fill="black">
<rect fill="white" x="12.2961" y="15.2821" width="46.9548" height="40.2348"/>
<path fill-rule="evenodd" clip-rule="evenodd" d="M35.3368 33.7465L35.3368 33.7027C35.5413 33.498 35.7492 33.2927 35.9597 33.0884C35.9641 33.0837 35.9685 33.079 35.9729 33.0743L35.9729 33.0756C36.8407 32.2336 37.7532 31.4065 38.6617 30.6849C39.8632 29.7306 41.1557 28.8739 42.3921 28.4447C43.6552 28.0082 45.0389 27.9654 46.1016 28.964C46.6487 29.4593 47.0111 30.1626 47.1351 30.9695C47.2476 31.7388 47.1274 32.5155 46.9214 33.2232C46.5202 34.587 45.6882 36.0338 44.9497 37.289L44.7009 37.7147C44.0053 38.8893 43.3739 39.9594 42.9459 40.9707C42.4643 42.1025 42.3788 42.8442 42.5449 43.3721C42.7591 44.0514 43.091 44.2935 43.455 44.392C43.8859 44.5092 44.5122 44.4452 45.3231 44.1572C46.9448 43.5784 48.7538 42.2947 49.8215 41.4177C50.126 41.168 50.4906 41.0503 50.8352 41.0904C51.1797 41.1305 51.476 41.3251 51.6589 41.6315C51.8417 41.9379 51.8961 42.3309 51.8101 42.7241C51.7241 43.1172 51.5047 43.4784 51.2003 43.7281C50.0336 44.6827 47.8955 46.2368 45.7947 46.9831C44.7456 47.3589 43.5627 47.5822 42.4868 47.2931C41.3412 46.9857 40.4632 46.1317 40.0079 44.7064C39.5045 43.1297 39.9511 41.4433 40.553 40.03C41.0817 38.7779 41.8451 37.4885 42.5184 36.3512L42.5221 36.345L42.7736 35.9159C43.5548 34.5891 44.1354 33.5359 44.3841 32.6828C44.4783 32.41 44.5149 32.1252 44.491 31.8522C44.4544 31.6465 44.3545 31.4703 44.2072 31.3519C43.9743 31.1295 43.5943 31.0189 42.8423 31.2798C42.0662 31.5475 41.0974 32.1523 40.0003 33.0252C38.6325 34.1149 37.2219 35.4959 35.9736 36.8L35.9736 36.8439C35.7684 37.0494 35.5598 37.2554 35.3486 37.4605C35.3449 37.4644 35.3412 37.4683 35.3376 37.4722L35.3376 37.4711C34.4691 38.3138 33.5558 39.1417 32.6466 39.8639C31.4451 40.8182 30.1526 41.675 28.9162 42.1042C27.653 42.5406 26.2693 42.5834 25.2066 41.5848C24.6595 41.0895 24.2972 40.3863 24.1732 39.5793C24.0606 38.8101 24.1809 38.0334 24.3868 37.3256C24.788 35.9619 25.6201 34.515 26.3585 33.2599L26.6073 32.8342C27.303 31.6595 27.9344 30.5894 28.3624 29.5781C28.8439 28.4463 28.9294 27.7046 28.7634 27.1768C28.5491 26.4974 28.2172 26.2553 27.8532 26.1569C27.4223 26.0396 26.796 26.1037 25.9852 26.3916C24.3634 26.9705 22.5544 28.2541 21.4867 29.1311C21.1823 29.3808 20.8177 29.4985 20.4731 29.4584C20.1285 29.4183 19.8322 29.2237 19.6494 28.9173C19.4665 28.611 19.4121 28.218 19.4981 27.8248C19.5841 27.4316 19.8035 27.0704 20.108 26.8208C21.2747 25.8661 23.4128 24.3121 25.5136 23.5658C26.5626 23.1899 27.7455 22.9667 28.8215 23.2557C29.967 23.5631 30.845 24.4171 31.3003 25.8424C31.8038 27.4191 31.3571 29.1055 30.7552 30.5188C30.2265 31.7709 29.4632 33.0603 28.7898 34.1977L28.7862 34.2039L28.5347 34.6329C27.7534 35.9597 27.1729 37.0129 26.9241 37.866C26.83 38.1389 26.7933 38.4237 26.8172 38.6966C26.8539 38.9024 26.9538 39.0785 27.101 39.1969C27.3339 39.4193 27.714 39.53 28.466 39.269C29.2421 39.0014 30.2108 38.3965 31.3079 37.5236C32.6766 36.4333 34.088 35.0513 35.3368 33.7465Z"/>
</mask>
<path fill-rule="evenodd" clip-rule="evenodd" d="M35.3368 33.7465L35.3368 33.7027C35.5413 33.498 35.7492 33.2927 35.9597 33.0884C35.9641 33.0837 35.9685 33.079 35.9729 33.0743L35.9729 33.0756C36.8407 32.2336 37.7532 31.4065 38.6617 30.6849C39.8632 29.7306 41.1557 28.8739 42.3921 28.4447C43.6552 28.0082 45.0389 27.9654 46.1016 28.964C46.6487 29.4593 47.0111 30.1626 47.1351 30.9695C47.2476 31.7388 47.1274 32.5155 46.9214 33.2232C46.5202 34.587 45.6882 36.0338 44.9497 37.289L44.7009 37.7147C44.0053 38.8893 43.3739 39.9594 42.9459 40.9707C42.4643 42.1025 42.3788 42.8442 42.5449 43.3721C42.7591 44.0514 43.091 44.2935 43.455 44.392C43.8859 44.5092 44.5122 44.4452 45.3231 44.1572C46.9448 43.5784 48.7538 42.2947 49.8215 41.4177C50.126 41.168 50.4906 41.0503 50.8352 41.0904C51.1797 41.1305 51.476 41.3251 51.6589 41.6315C51.8417 41.9379 51.8961 42.3309 51.8101 42.7241C51.7241 43.1172 51.5047 43.4784 51.2003 43.7281C50.0336 44.6827 47.8955 46.2368 45.7947 46.9831C44.7456 47.3589 43.5627 47.5822 42.4868 47.2931C41.3412 46.9857 40.4632 46.1317 40.0079 44.7064C39.5045 43.1297 39.9511 41.4433 40.553 40.03C41.0817 38.7779 41.8451 37.4885 42.5184 36.3512L42.5221 36.345L42.7736 35.9159C43.5548 34.5891 44.1354 33.5359 44.3841 32.6828C44.4783 32.41 44.5149 32.1252 44.491 31.8522C44.4544 31.6465 44.3545 31.4703 44.2072 31.3519C43.9743 31.1295 43.5943 31.0189 42.8423 31.2798C42.0662 31.5475 41.0974 32.1523 40.0003 33.0252C38.6325 34.1149 37.2219 35.4959 35.9736 36.8L35.9736 36.8439C35.7684 37.0494 35.5598 37.2554 35.3486 37.4605C35.3449 37.4644 35.3412 37.4683 35.3376 37.4722L35.3376 37.4711C34.4691 38.3138 33.5558 39.1417 32.6466 39.8639C31.4451 40.8182 30.1526 41.675 28.9162 42.1042C27.653 42.5406 26.2693 42.5834 25.2066 41.5848C24.6595 41.0895 24.2972 40.3863 24.1732 39.5793C24.0606 38.8101 24.1809 38.0334 24.3868 37.3256C24.788 35.9619 25.6201 34.515 26.3585 33.2599L26.6073 32.8342C27.303 31.6595 27.9344 30.5894 28.3624 29.5781C28.8439 28.4463 28.9294 27.7046 28.7634 27.1768C28.5491 26.4974 28.2172 26.2553 27.8532 26.1569C27.4223 26.0396 26.796 26.1037 25.9852 26.3916C24.3634 26.9705 22.5544 28.2541 21.4867 29.1311C21.1823 29.3808 20.8177 29.4985 20.4731 29.4584C20.1285 29.4183 19.8322 29.2237 19.6494 28.9173C19.4665 28.611 19.4121 28.218 19.4981 27.8248C19.5841 27.4316 19.8035 27.0704 20.108 26.8208C21.2747 25.8661 23.4128 24.3121 25.5136 23.5658C26.5626 23.1899 27.7455 22.9667 28.8215 23.2557C29.967 23.5631 30.845 24.4171 31.3003 25.8424C31.8038 27.4191 31.3571 29.1055 30.7552 30.5188C30.2265 31.7709 29.4632 33.0603 28.7898 34.1977L28.7862 34.2039L28.5347 34.6329C27.7534 35.9597 27.1729 37.0129 26.9241 37.866C26.83 38.1389 26.7933 38.4237 26.8172 38.6966C26.8539 38.9024 26.9538 39.0785 27.101 39.1969C27.3339 39.4193 27.714 39.53 28.466 39.269C29.2421 39.0014 30.2108 38.3965 31.3079 37.5236C32.6766 36.4333 34.088 35.0513 35.3368 33.7465Z" fill="#A36BB2"/>
<path d="M35.3368 33.7027L34.2669 32.6343L33.8247 33.0771L33.8248 33.703L35.3368 33.7027ZM35.3368 33.7465L36.4292 34.792L36.849 34.3533L36.8489 33.7462L35.3368 33.7465ZM35.9597 33.0884L37.013 34.1732L37.0388 34.1482L37.0634 34.1219L35.9597 33.0884ZM35.9729 33.0743L37.4849 33.0734L37.4827 29.2498L34.8692 32.0408L35.9729 33.0743ZM35.9729 33.0756L34.4608 33.0765L34.4629 36.6473L37.0258 34.1608L35.9729 33.0756ZM38.6617 30.6849L37.7213 29.5009L37.7212 29.5009L38.6617 30.6849ZM42.3921 28.4447L41.8983 27.0155L41.8962 27.0162L42.3921 28.4447ZM46.1016 28.964L45.0662 30.0659L45.0764 30.0755L45.0868 30.0849L46.1016 28.964ZM47.1351 30.9695L48.6312 30.7506L48.6296 30.7399L47.1351 30.9695ZM46.9214 33.2232L48.372 33.65L48.3733 33.6457L46.9214 33.2232ZM44.9497 37.289L43.6465 36.5222L43.6443 36.526L44.9497 37.289ZM44.7009 37.7147L46.002 38.4851L46.0063 38.4777L44.7009 37.7147ZM42.9459 40.9707L44.3372 41.5627L44.3383 41.5601L42.9459 40.9707ZM42.5449 43.3721L41.1025 43.8258L41.1028 43.8268L42.5449 43.3721ZM43.455 44.392L43.8521 42.933L43.8498 42.9323L43.455 44.392ZM45.3231 44.1572L45.8291 45.5821L45.8314 45.5813L45.3231 44.1572ZM49.8215 41.4177L48.8627 40.2485L48.8617 40.2493L49.8215 41.4177ZM50.8352 41.0904L51.0099 39.5885L51.0099 39.5885L50.8352 41.0904ZM51.8101 42.7241L50.333 42.401L50.333 42.401L51.8101 42.7241ZM51.2003 43.7281L52.1578 44.8983L52.1591 44.8973L51.2003 43.7281ZM45.7947 46.9831L45.2885 45.5582L45.2846 45.5596L45.7947 46.9831ZM42.4868 47.2931L42.879 45.8329L42.8787 45.8328L42.4868 47.2931ZM40.0079 44.7064L38.5675 45.1664L38.5676 45.1665L40.0079 44.7064ZM40.553 40.03L41.9442 40.6225L41.946 40.6182L40.553 40.03ZM42.5184 36.3512L43.8196 37.1215L43.8196 37.1215L42.5184 36.3512ZM42.5221 36.345L43.8232 37.1153L43.8266 37.1096L42.5221 36.345ZM42.7736 35.9159L41.4706 35.1487L41.4691 35.1513L42.7736 35.9159ZM44.3841 32.6828L42.9548 32.1896L42.9428 32.2243L42.9325 32.2596L44.3841 32.6828ZM44.491 31.8522L45.9973 31.7203L45.9914 31.6534L45.9797 31.5872L44.491 31.8522ZM44.2072 31.3519L43.1629 32.4454L43.2095 32.4899L43.2598 32.5304L44.2072 31.3519ZM42.8423 31.2798L43.3353 32.7092L43.3379 32.7083L42.8423 31.2798ZM40.0003 33.0252L39.0589 31.8419L39.0581 31.8425L40.0003 33.0252ZM35.9736 36.8L34.8813 35.7545L34.4614 36.1932L34.4615 36.8003L35.9736 36.8ZM35.9736 36.8439L37.0436 37.9123L37.4858 37.4695L37.4857 36.8436L35.9736 36.8439ZM35.3486 37.4605L34.2953 36.3756L34.2694 36.4007L34.2448 36.427L35.3486 37.4605ZM35.3376 37.4722L33.8255 37.4719L33.8247 41.3008L36.4414 38.5056L35.3376 37.4722ZM35.3376 37.4711L36.8496 37.4715L36.8504 33.8963L34.2846 36.386L35.3376 37.4711ZM32.6466 39.8639L33.587 41.048L33.5871 41.0479L32.6466 39.8639ZM28.9162 42.1042L29.4099 43.5333L29.4121 43.5326L28.9162 42.1042ZM25.2066 41.5848L26.2421 40.4829L26.2319 40.4733L26.2215 40.4639L25.2066 41.5848ZM24.1732 39.5793L22.677 39.7982L22.6787 39.8089L24.1732 39.5793ZM24.3868 37.3256L22.9362 36.8989L22.935 36.9032L24.3868 37.3256ZM26.3585 33.2599L27.6618 34.0266L27.6639 34.0229L26.3585 33.2599ZM26.6073 32.8342L25.3063 32.0637L25.3019 32.0711L26.6073 32.8342ZM28.3624 29.5781L26.971 28.9862L26.9699 28.9888L28.3624 29.5781ZM28.7634 27.1768L30.2058 26.723L30.2054 26.722L28.7634 27.1768ZM27.8532 26.1569L27.4561 27.6159L27.4585 27.6165L27.8532 26.1569ZM25.9852 26.3916L25.4792 24.9667L25.4769 24.9675L25.9852 26.3916ZM21.4867 29.1311L22.4455 30.3003L22.4465 30.2995L21.4867 29.1311ZM20.4731 29.4584L20.6479 27.9565L20.6478 27.9565L20.4731 29.4584ZM19.6494 28.9173L18.351 29.6922L18.351 29.6922L19.6494 28.9173ZM20.108 26.8208L19.1504 25.6506L19.1492 25.6516L20.108 26.8208ZM25.5136 23.5658L26.0197 24.9906L26.0236 24.9892L25.5136 23.5658ZM28.8215 23.2557L28.4292 24.716L28.4296 24.7161L28.8215 23.2557ZM31.3003 25.8424L32.7407 25.3825L32.7407 25.3823L31.3003 25.8424ZM30.7552 30.5188L29.3641 29.9263L29.3623 29.9306L30.7552 30.5188ZM28.7898 34.1977L27.4887 33.4273L27.4887 33.4274L28.7898 34.1977ZM28.7862 34.2039L27.485 33.4335L27.4817 33.4392L28.7862 34.2039ZM28.5347 34.6329L29.8376 35.4001L29.8391 35.3975L28.5347 34.6329ZM26.9241 37.866L28.3535 38.3592L28.3655 38.3245L28.3757 38.2893L26.9241 37.866ZM26.8172 38.6966L25.311 38.8286L25.3168 38.8955L25.3286 38.9616L26.8172 38.6966ZM27.101 39.1969L28.1454 38.1035L28.0987 38.0589L28.0485 38.0185L27.101 39.1969ZM28.466 39.269L27.973 37.8396L27.9704 37.8405L28.466 39.269ZM31.3079 37.5236L32.2493 38.7069L32.2501 38.7063L31.3079 37.5236ZM33.8248 33.703L33.8248 33.7468L36.8489 33.7462L36.8489 33.7025L33.8248 33.703ZM34.9064 32.0035C34.6899 32.2137 34.4765 32.4244 34.2669 32.6343L36.4067 34.7712C36.6062 34.5715 36.8085 34.3717 37.013 34.1732L34.9064 32.0035ZM34.8692 32.0408C34.8645 32.0458 34.8605 32.05 34.856 32.0548L37.0634 34.1219C37.0676 34.1174 37.0725 34.1122 37.0766 34.1078L34.8692 32.0408ZM37.4849 33.0747L37.4849 33.0734L34.4608 33.0752L34.4608 33.0765L37.4849 33.0747ZM37.7212 29.5009C36.7615 30.2633 35.8103 31.1265 34.92 31.9903L37.0258 34.1608C37.871 33.3407 38.745 32.5498 39.6022 31.8689L37.7212 29.5009ZM41.8962 27.0162C40.4168 27.5298 38.9647 28.5133 37.7213 29.5009L39.6021 31.8689C40.7617 30.9479 41.8946 30.2179 42.888 29.8731L41.8962 27.0162ZM47.1371 27.8621C45.4833 26.3081 43.4059 26.4946 41.8983 27.0155L42.8858 29.8738C43.9046 29.5219 44.5945 29.6227 45.0662 30.0659L47.1371 27.8621ZM48.6296 30.7399C48.4588 29.6284 47.9488 28.5967 47.1165 27.8431L45.0868 30.0849C45.3486 30.322 45.5634 30.6967 45.6406 31.1992L48.6296 30.7399ZM48.3733 33.6457C48.614 32.8182 48.7862 31.8098 48.6312 30.7506L45.639 31.1885C45.7091 31.6677 45.6407 32.2127 45.4696 32.8008L48.3733 33.6457ZM46.253 38.0557C46.9751 36.8283 47.9093 35.2226 48.372 33.65L45.4708 32.7965C45.1311 33.9513 44.4012 35.2394 43.6465 36.5223L46.253 38.0557ZM46.0063 38.4777L46.2551 38.052L43.6443 36.526L43.3955 36.9516L46.0063 38.4777ZM44.3383 41.5601C44.719 40.6607 45.2929 39.6824 46.0019 38.4851L43.3999 36.9442C42.7176 38.0962 42.0288 39.2582 41.5534 40.3814L44.3383 41.5601ZM43.9872 42.9184C43.9898 42.9265 43.9623 42.8518 43.9968 42.6292C44.0323 42.3997 44.127 42.0567 44.3372 41.5627L41.5545 40.3788C41.0325 41.6056 40.7705 42.7705 41.1025 43.8258L43.9872 42.9184ZM43.8498 42.9323C43.8542 42.9335 43.881 42.9413 43.9186 42.962C43.958 42.9837 43.9938 43.0111 44.0214 43.0392C44.0771 43.0957 44.0433 43.0962 43.9869 42.9173L41.1028 43.8268C41.2606 44.3273 41.5 44.7885 41.8661 45.1605C42.2452 45.5456 42.6731 45.7469 43.0603 45.8516L43.8498 42.9323ZM44.8171 42.7323C44.4894 42.8487 44.2414 42.9043 44.0667 42.9252C43.8872 42.9467 43.8284 42.9265 43.8521 42.933L43.0579 45.8509C43.9306 46.0885 44.9108 45.9082 45.8291 45.5821L44.8171 42.7323ZM48.8617 40.2493C47.8331 41.0942 46.1865 42.2436 44.8148 42.7332L45.8314 45.5813C47.7032 44.9132 49.6745 43.4952 50.7813 42.5861L48.8617 40.2493ZM51.0099 39.5885C50.2015 39.4944 49.4374 39.7772 48.8627 40.2485L50.7803 42.5869C50.7945 42.5752 50.7958 42.5785 50.7779 42.5843C50.7596 42.5902 50.7189 42.5991 50.6604 42.5923L51.0099 39.5885ZM52.9573 40.8566C52.5414 40.1598 51.8371 39.6847 51.0099 39.5885L50.6604 42.5923C50.6001 42.5853 50.5357 42.5631 50.4775 42.5249C50.4197 42.4869 50.3819 42.4424 50.3605 42.4064L52.9573 40.8566ZM53.2872 43.0472C53.444 42.3305 53.3627 41.536 52.9573 40.8566L50.3605 42.4064C50.3399 42.3719 50.3373 42.351 50.3375 42.3526C50.3376 42.3529 50.3382 42.3575 50.3378 42.3661C50.3374 42.3746 50.3362 42.3864 50.333 42.401L53.2872 43.0472ZM52.1591 44.8973C52.7328 44.4268 53.1303 43.7647 53.2872 43.0472L50.333 42.401C50.3179 42.4698 50.2767 42.53 50.2415 42.5588L52.1591 44.8973ZM46.3008 48.4079C48.6535 47.5721 50.9551 45.8824 52.1578 44.8983L50.2427 42.5578C49.112 43.483 47.1374 44.9014 45.2885 45.5582L46.3008 48.4079ZM42.0945 48.7534C43.6061 49.1595 45.1384 48.8244 46.3047 48.4065L45.2846 45.5596C44.3528 45.8935 43.5193 46.0048 42.879 45.8329L42.0945 48.7534ZM38.5676 45.1665C39.1535 47.0009 40.3755 48.2921 42.0948 48.7535L42.8787 45.8328C42.3069 45.6793 41.7729 45.2625 41.4483 44.2464L38.5676 45.1665ZM39.1619 39.4376C38.5218 40.9405 37.8936 43.0558 38.5675 45.1664L41.4484 44.2465C41.1154 43.2036 41.3804 41.9461 41.9442 40.6225L39.1619 39.4376ZM41.2173 35.5809C40.555 36.6996 39.7357 38.0785 39.16 39.4419L41.946 40.6182C42.4277 39.4773 43.1352 38.2774 43.8196 37.1215L41.2173 35.5809ZM41.2209 35.5747L41.2173 35.5809L43.8196 37.1215L43.8232 37.1153L41.2209 35.5747ZM41.4691 35.1513L41.2176 35.5804L43.8266 37.1096L44.0781 36.6806L41.4691 35.1513ZM42.9325 32.2596C42.7461 32.899 42.2721 33.7876 41.4706 35.1487L44.0765 36.6831C44.8376 35.3906 45.5247 34.1729 45.8357 33.1061L42.9325 32.2596ZM42.9847 31.9842C42.9891 32.0344 42.9834 32.1065 42.9548 32.1896L45.8135 33.176C45.9731 32.7135 46.0407 32.2159 45.9973 31.7203L42.9847 31.9842ZM43.2598 32.5304C43.0912 32.3948 43.0225 32.2302 43.0024 32.1172L45.9797 31.5872C45.8863 31.0627 45.6177 30.5458 45.1547 30.1735L43.2598 32.5304ZM43.3379 32.7083C43.4593 32.6662 43.536 32.6495 43.5753 32.6433C43.614 32.6373 43.6055 32.643 43.5619 32.6384C43.5147 32.6335 43.4424 32.618 43.3595 32.5792C43.2765 32.5403 43.2104 32.4908 43.1629 32.4454L45.2516 30.2585C44.901 29.9236 44.4386 29.6896 43.8769 29.6308C43.361 29.5767 42.8438 29.6788 42.3466 29.8513L43.3379 32.7083ZM40.9417 34.2085C41.9973 33.3687 42.8049 32.8922 43.3353 32.7092L42.3492 29.8504C41.3275 30.2028 40.1976 30.936 39.0589 31.8419L40.9417 34.2085ZM37.066 37.8456C38.2973 36.5591 39.6533 35.2348 40.9425 34.2078L39.0581 31.8425C37.6116 32.9949 36.1465 34.4327 34.8813 35.7545L37.066 37.8456ZM37.4857 36.8436L37.4857 36.7998L34.4615 36.8003L34.4616 36.8442L37.4857 36.8436ZM36.4018 38.5453C36.6191 38.3343 36.8333 38.1229 37.0436 37.9123L34.9037 35.7755C34.7035 35.9759 34.5005 36.1764 34.2953 36.3756L36.4018 38.5453ZM36.4414 38.5056C36.445 38.5017 36.4484 38.4981 36.4523 38.494L34.2448 36.427C34.2414 36.4306 34.2375 36.4349 34.2337 36.4388L36.4414 38.5056ZM33.8255 37.4708L33.8255 37.4719L36.8496 37.4725L36.8496 37.4715L33.8255 37.4708ZM33.5871 41.0479C34.5476 40.2849 35.4995 39.4209 36.3905 38.5563L34.2846 36.386C33.4387 37.2067 32.564 37.9985 31.7061 38.68L33.5871 41.0479ZM29.4121 43.5326C30.8915 43.019 32.3436 42.0356 33.587 41.048L31.7062 38.6799C30.5466 39.6009 29.4137 40.3309 28.4203 40.6757L29.4121 43.5326ZM24.1712 42.6867C25.825 44.2408 27.9023 44.0542 29.4099 43.5333L28.4224 40.675C27.4037 41.027 26.7137 40.9261 26.2421 40.4829L24.1712 42.6867ZM22.6787 39.8089C22.8494 40.9204 23.3595 41.9521 24.1918 42.7057L26.2215 40.4639C25.9596 40.2268 25.7449 39.8521 25.6677 39.3497L22.6787 39.8089ZM22.935 36.9032C22.6942 37.7306 22.5221 38.739 22.677 39.7982L25.6693 39.3604C25.5992 38.8812 25.6676 38.3361 25.8387 37.748L22.935 36.9032ZM25.0553 32.4931C24.3331 33.7206 23.3989 35.3262 22.9363 36.8989L25.8374 37.7523C26.1771 36.5975 26.907 35.3094 27.6618 34.0266L25.0553 32.4931ZM25.3019 32.0711L25.0531 32.4968L27.6639 34.0229L27.9127 33.5972L25.3019 32.0711ZM26.9699 28.9888C26.5893 29.8882 26.0153 30.8664 25.3063 32.0637L27.9084 33.6046C28.5906 32.4526 29.2795 31.2906 29.7549 30.1675L26.9699 28.9888ZM27.321 27.6305C27.3185 27.6224 27.3459 27.697 27.3115 27.9197C27.2759 28.1491 27.1812 28.4921 26.971 28.9862L29.7538 30.1701C30.2757 28.9432 30.5377 27.7784 30.2058 26.723L27.321 27.6305ZM27.4585 27.6165C27.454 27.6153 27.4272 27.6075 27.3897 27.5868C27.3502 27.5651 27.3145 27.5377 27.2868 27.5096C27.2312 27.4531 27.2649 27.4526 27.3213 27.6315L30.2054 26.722C30.0476 26.2216 29.8083 25.7603 29.4421 25.3883C29.0631 25.0032 28.6351 24.802 28.2479 24.6972L27.4585 27.6165ZM26.4911 27.8165C26.8188 27.7001 27.0668 27.6445 27.2415 27.6236C27.4211 27.6021 27.4798 27.6223 27.4561 27.6159L28.2503 24.6979C27.3776 24.4604 26.3974 24.6406 25.4792 24.9667L26.4911 27.8165ZM22.4465 30.2995C23.4751 29.4546 25.1217 28.3053 26.4934 27.8157L25.4769 24.9675C23.6051 25.6356 21.6338 27.0536 20.527 27.9627L22.4465 30.2995ZM20.2983 30.9604C21.1067 31.0544 21.8708 30.7716 22.4455 30.3003L20.528 27.9619C20.5137 27.9736 20.5124 27.9703 20.5303 27.9645C20.5487 27.9586 20.5893 27.9497 20.6479 27.9565L20.2983 30.9604ZM18.351 29.6922C18.7668 30.389 19.4711 30.8641 20.2983 30.9604L20.6478 27.9565C20.7081 27.9635 20.7726 27.9857 20.8308 28.024C20.8885 28.0619 20.9263 28.1064 20.9478 28.1424L18.351 29.6922ZM18.021 27.5017C17.8643 28.2183 17.9456 29.0129 18.351 29.6922L20.9478 28.1425C20.9684 28.1769 20.9709 28.1978 20.9707 28.1963C20.9707 28.1959 20.9701 28.1914 20.9705 28.1828C20.9708 28.1742 20.9721 28.1624 20.9753 28.1479L18.021 27.5017ZM19.1492 25.6516C18.5754 26.1221 18.178 26.7842 18.021 27.5017L20.9753 28.1479C20.9903 28.079 21.0316 28.0188 21.0667 27.99L19.1492 25.6516ZM25.0074 22.141C22.6547 22.9767 20.3531 24.6664 19.1504 25.6506L21.0655 27.991C22.1962 27.0658 24.1708 25.6474 26.0197 24.9906L25.0074 22.141ZM29.2137 21.7954C27.7021 21.3894 26.1698 21.7244 25.0035 22.1423L26.0236 24.9892C26.9554 24.6553 27.789 24.544 28.4292 24.716L29.2137 21.7954ZM32.7407 25.3823C32.1547 23.5479 30.9327 22.2567 29.2134 21.7953L28.4296 24.7161C29.0014 24.8695 29.5354 25.2864 29.8599 26.3025L32.7407 25.3823ZM32.1464 31.1113C32.7865 29.6083 33.4146 27.4931 32.7407 25.3825L29.8599 26.3023C30.1929 27.3452 29.9278 28.6027 29.3641 29.9263L32.1464 31.1113ZM30.091 34.968C30.7533 33.8493 31.5725 32.4703 32.1482 31.107L29.3623 29.9306C28.8805 31.0716 28.173 32.2714 27.4887 33.4273L30.091 34.968ZM30.0873 34.9742L30.091 34.968L27.4887 33.4274L27.485 33.4336L30.0873 34.9742ZM29.8391 35.3975L30.0906 34.9685L27.4817 33.4392L27.2302 33.8683L29.8391 35.3975ZM28.3757 38.2893C28.5622 37.6499 29.0362 36.7612 29.8376 35.4001L27.2317 33.8657C26.4707 35.1582 25.7836 36.3759 25.4725 37.4428L28.3757 38.2893ZM28.3235 38.5646C28.3191 38.5144 28.3248 38.4423 28.3535 38.3592L25.4948 37.3728C25.3352 37.8354 25.2675 38.3329 25.311 38.8286L28.3235 38.5646ZM28.0485 38.0185C28.217 38.154 28.2858 38.3186 28.3059 38.4316L25.3286 38.9616C25.422 39.4862 25.6905 40.003 26.1536 40.3753L28.0485 38.0185ZM27.9704 37.8405C27.8489 37.8827 27.7723 37.8993 27.7329 37.9055C27.6942 37.9116 27.7028 37.9058 27.7463 37.9104C27.7935 37.9153 27.8658 37.9308 27.9487 37.9697C28.0317 38.0086 28.0978 38.058 28.1454 38.1035L26.0567 40.2903C26.4073 40.6252 26.8697 40.8592 27.4313 40.9181C27.9472 40.9721 28.4644 40.8701 28.9616 40.6976L27.9704 37.8405ZM30.3666 36.3404C29.311 37.1802 28.5034 37.6567 27.973 37.8396L28.959 40.6985C29.9808 40.346 31.1106 39.6128 32.2493 38.7069L30.3666 36.3404ZM34.2445 32.701C33.0126 33.9882 31.6557 35.3134 30.3658 36.341L32.2501 38.7063C33.6975 37.5532 35.1635 36.1145 36.4292 34.792L34.2445 32.701Z" fill="#A36BB2" mask="url(#path-2-outside-1_112_35429)"/>
</svg>
