<svg width="791" height="525" viewBox="0 0 791 525" fill="none" xmlns="http://www.w3.org/2000/svg">
<path opacity="0.25" d="M536.765 292.275C549.084 227.043 538.045 150.564 505.867 92.6599C489.613 63.4126 470.683 30.3054 439.945 17.151C365.258 -14.8112 277.099 53.2785 229.558 94.6299C195.008 124.682 166.057 160.901 138.005 197.115C99.2495 247.146 68.7152 293.581 59.7957 356.052C49.4199 428.724 111.621 460.652 171.744 473.902C315.05 505.484 471.502 432.403 588.14 352.428C646.578 312.359 701.452 263.809 746.076 208.453C764.284 185.866 773.808 168.519 777.429 141.842" stroke="#BBD8FF" stroke-width="15" stroke-linecap="round" stroke-linejoin="round"/>
<path d="M58.8639 240.142C69.6741 243.727 81.5772 248.621 93.1182 248.415C107.194 248.164 112.591 232.503 112.296 220.549C112.05 210.538 107.024 203.248 98.5064 198.636C92.9556 195.63 90.8151 198.03 90.1346 204.124C88.327 220.311 106.462 244.135 120.45 250.678C138.724 259.226 145.828 243.344 149.6 228.654" stroke="#F4ACAC" stroke-width="5.67785" stroke-linecap="round"/>
<path d="M598.63 354.332C598.878 361.886 599.475 375.006 593.406 380.823C582.913 390.881 555.006 387.232 544.351 379.02C535.86 372.475 518.843 345.014 535.394 338.637C537.998 337.633 542.176 337.862 544.038 340.283C547.263 344.476 537.912 351.164 535.309 353.003C508.028 372.286 475.357 353.383 454.499 334.574" stroke="#B1E0C5" stroke-width="5.67785" stroke-linecap="round"/>
<path d="M147.794 209.496L138.525 189.18" stroke="#BBD8FF" stroke-width="5.67785" stroke-linecap="round"/>
<path d="M146.198 265.824C142.355 266.323 138.511 266.718 134.658 267.121" stroke="#043160" stroke-width="5.67785" stroke-linecap="round"/>
<path d="M453.954 303.154L478.797 294.721" stroke="#F4ACAC" stroke-width="11.3557" stroke-linecap="round"/>
<path d="M447.331 367.275C461.614 375.353 474.098 385.146 487.358 394.747" stroke="#BBD8FF" stroke-width="11.3557" stroke-linecap="round"/>
<path d="M182.332 70.1538C170.954 91.9314 156.664 110.816 142.864 131.063C139.86 135.469 132.328 145.163 141.173 138.242C153.349 128.714 168.751 122.006 183.754 118.555C185.568 118.138 209.227 117.604 209.638 116.258C210.832 112.345 185.058 100.658 181.272 97.2116C176.202 92.5963 171.755 90.3657 165.022 87.2575C159.614 84.7608 144.943 76.8194 154.911 87.9703C162.802 96.7965 170.705 105.733 176.496 116.141C179.7 121.898 183.998 128.856 185.838 134.98C190.34 149.962 175.98 104.987 174.662 89.3989" stroke="#FFE9A7" stroke-width="17.0076" stroke-linecap="round" stroke-linejoin="round"/>
<path d="M442.931 472.715C443.463 463.592 445.425 455.006 447.012 446.033C447.357 444.08 448.431 439.642 446.489 443.34C443.815 448.431 439.617 453.058 435.056 456.519C434.505 456.938 426.564 460.732 426.63 461.251C426.823 462.761 437.347 462.787 439.158 463.378C441.582 464.168 443.431 464.245 446.188 464.271C448.403 464.292 454.591 464.744 449.508 462.485C445.484 460.697 441.44 458.874 437.886 456.229C435.921 454.767 433.4 453.064 431.841 451.268C428.027 446.875 439.765 459.933 442.592 465.017" stroke="#E0BBEE" stroke-width="10.4673" stroke-linecap="round" stroke-linejoin="round"/>
<path d="M146.899 317.599C146.099 325.646 144.653 333.631 143.385 341.612C143.054 341.28 142.41 341.208 142.025 340.966C141.502 340.636 140.719 340.4 140.128 340.259C138.303 339.823 136.53 339.222 134.716 338.745C132.849 338.254 130.981 337.73 129.186 337.018C125.362 335.502 121.475 334.09 117.704 332.441C115.66 331.547 113.63 330.617 111.594 329.704C111.134 329.497 110.386 329.259 109.961 328.916C109.85 328.826 109.804 328.779 109.93 328.672C110.335 328.327 110.948 328.138 111.426 327.901C111.792 327.719 112.157 327.499 112.544 327.368C114.083 326.848 115.452 325.82 116.874 325.054C123.382 321.549 130.055 318.341 136.595 314.894C139.616 313.302 142.564 311.526 145.347 309.543C146.012 309.069 146.644 308.536 147.326 308.086C147.504 307.968 147.489 307.975 147.475 308.158C147.237 311.303 147.21 314.46 146.899 317.599Z" stroke="#BBD8FF" stroke-width="5.67785" stroke-linecap="round" stroke-linejoin="round"/>
<g clip-path="url(#clip0_888_38928)" filter="url(#filter0_d_888_38928)">
<path d="M313.247 364.744L395.031 402.006L392.255 408.522C391.031 411.833 387.946 415.653 384.833 416.907L362.739 431.197C359.626 432.449 356.093 432.287 352.916 430.746L310.558 410.214C307.381 408.674 304.821 405.882 303.44 402.451C302.06 399.021 301.972 395.234 303.196 391.922L313.247 364.744Z" fill="white"/>
<path d="M339.665 302.368C341.748 297.481 345.686 293.622 350.614 291.639C355.541 289.656 361.055 289.711 365.942 291.793L416.489 313.329C421.375 315.412 425.234 319.35 427.217 324.277C429.2 329.205 429.145 334.718 427.064 339.605L396.527 411.275C394.446 416.163 390.508 420.023 385.581 422.008L359.945 432.325C355.017 434.307 349.503 434.251 344.616 432.168L312.039 418.287C307.152 416.205 303.293 412.266 301.31 407.339C299.327 402.411 299.382 396.898 301.463 392.011L339.656 302.371L339.665 302.368ZM388.203 405.265L319.23 375.878L310.686 395.933C309.645 398.376 309.617 401.133 310.609 403.597C311.601 406.06 313.53 408.029 315.973 409.071L348.55 422.951C350.994 423.992 353.751 424.021 356.215 423.03L381.85 412.713C384.314 411.72 386.283 409.79 387.324 407.346L388.203 405.265Z" fill="#2F80ED"/>
</g>
<g filter="url(#filter1_d_888_38928)">
<path d="M236.921 346.772C232.621 357.793 223.619 380.689 222.015 384.108L253.413 372.761L258.294 356.797L274.257 361.678L283.148 337.165L291.697 341.175L309.743 302.704L253.039 273.498L228.713 314.239L240.402 317.114L228.372 342.762L236.921 346.772Z" fill="white"/>
<path d="M318.563 298.757L247.829 266.213C247.681 266.143 247.522 266.103 247.359 266.096C247.196 266.088 247.034 266.113 246.881 266.168C246.727 266.223 246.587 266.308 246.466 266.418C246.346 266.528 246.249 266.661 246.18 266.808L223.559 314.122C223.417 314.421 223.399 314.764 223.509 315.077C223.619 315.389 223.847 315.645 224.145 315.79L224.165 315.8L232.148 319.471L221.032 342.675C220.89 342.974 220.872 343.317 220.982 343.629C221.092 343.942 221.32 344.198 221.618 344.343L221.638 344.352L229.521 347.977L211.636 385.558L203.63 388.451C202.982 388.685 202.629 389.412 202.863 390.059L205.799 398.184C206.033 398.831 206.754 399.17 207.402 398.936L258.164 380.59C258.473 380.478 258.725 380.254 258.866 379.954L266.045 364.779L274.108 368.488C274.255 368.557 274.415 368.597 274.578 368.605C274.74 368.613 274.903 368.588 275.056 368.533C275.209 368.477 275.35 368.392 275.47 368.282C275.59 368.172 275.688 368.04 275.756 367.892L286.842 344.65L294.845 348.33C294.993 348.4 295.152 348.439 295.315 348.447C295.477 348.455 295.64 348.43 295.793 348.375C295.946 348.32 296.087 348.234 296.207 348.125C296.328 348.015 296.425 347.882 296.494 347.734L319.115 300.421C319.456 299.799 319.19 299.063 318.563 298.757V298.757ZM250.356 371.464L226.778 379.985L239.485 353.262L255.471 360.613L250.356 371.464ZM269.837 354.09L235.626 338.349L242.127 324.75L276.337 340.492L269.837 354.09V354.09ZM290.588 333.927L238.139 309.801L252.1 280.61L304.555 304.751L290.588 333.927V333.927Z" fill="#33A787"/>
</g>
<g clip-path="url(#clip1_888_38928)" filter="url(#filter2_d_888_38928)">
<path d="M284.022 137.597C282.258 138.218 281.36 140.091 281.98 141.854L294.935 178.705L282.337 183.134L263.335 129.087C262.715 127.323 260.842 126.425 259.078 127.045C257.315 127.665 256.416 129.538 257.036 131.302L276.038 185.349L263.44 189.778L242.422 129.999C241.802 128.235 239.929 127.336 238.166 127.956C236.402 128.576 235.503 130.45 236.123 132.213L257.14 191.993L244.542 196.422L228.574 151.005C227.954 149.241 226.081 148.342 224.317 148.962C222.554 149.583 221.677 151.519 222.275 153.219L250.778 234.29L210.81 228.312L208.594 232.276L259.016 257.723C262.274 259.338 266.059 259.635 269.46 258.439L310.783 243.911C317.712 241.475 321.388 233.813 318.952 226.884L288.279 139.64C287.659 137.876 285.786 136.977 284.022 137.597Z" fill="white"/>
<path d="M279.596 124.999C278.525 125.375 277.499 125.878 276.557 126.421L275.937 124.657C272.881 115.964 263.346 111.39 254.653 114.446C252.574 115.177 250.691 116.263 249.13 117.661C244.834 114.501 239.094 113.475 233.74 115.357C225.425 118.281 220.84 127.183 223.215 135.549C222.141 135.714 221.025 135.965 219.892 136.364C211.199 139.42 206.624 148.955 209.68 157.648L230.83 217.805L212.814 215.08C207.352 214.24 201.864 216.948 199.176 221.786L190.19 237.898L253.027 269.667C259.479 272.92 267.09 273.429 273.956 271.015L315.216 256.509C329.137 251.615 336.448 236.375 331.554 222.454L300.881 135.21C297.825 126.517 288.289 121.942 279.596 124.999V124.999ZM318.956 226.883C321.392 233.812 317.716 241.475 310.786 243.911L269.527 258.417C266.125 259.613 262.299 259.401 259.083 257.7L208.638 232.19L210.854 228.226L250.781 234.289L222.279 153.219C221.659 151.455 222.557 149.582 224.321 148.962C226.085 148.342 227.98 149.303 228.578 151.004L244.546 196.421L257.144 191.992L236.127 132.213C235.507 130.449 236.405 128.576 238.169 127.956C239.933 127.336 241.806 128.234 242.426 129.998L263.443 189.777L276.041 185.348L257.04 131.301C256.42 129.537 257.318 127.664 259.082 127.044C260.846 126.424 262.719 127.323 263.339 129.086L282.341 183.133L294.939 178.704L281.983 141.854C281.363 140.09 282.262 138.217 284.026 137.597C285.789 136.977 287.662 137.875 288.283 139.639L318.956 226.883Z" fill="#043160"/>
</g>
<g filter="url(#filter3_d_888_38928)">
<g filter="url(#filter4_d_888_38928)">
<path fill-rule="evenodd" clip-rule="evenodd" d="M424.145 120.581C422.497 120.844 420.887 121.776 419.834 123.228L409.686 137.216L438.35 158.009L448.497 144.021C450.659 141.04 449.998 136.886 447.017 134.724L429.131 121.749C427.603 120.64 425.86 120.308 424.145 120.581ZM406.72 164.056L413.752 169.157L363.515 238.407L357.448 239.373L356.483 233.306L406.72 164.056ZM342.423 229.932L403.75 145.395L432.413 166.188L371.087 250.725L346.358 254.66L342.423 229.932Z" fill="#A36BB2"/>
</g>
<path d="M413.961 169.521L406.318 163.976L356.414 232.768L357.463 239.362L364.057 238.313L413.961 169.521Z" fill="white"/>
</g>
<defs>
<filter id="filter0_d_888_38928" x="242.926" y="252.273" width="235.204" height="235.203" filterUnits="userSpaceOnUse" color-interpolation-filters="sRGB">
<feFlood flood-opacity="0" result="BackgroundImageFix"/>
<feColorMatrix in="SourceAlpha" type="matrix" values="0 0 0 0 0 0 0 0 0 0 0 0 0 0 0 0 0 0 127 0" result="hardAlpha"/>
<feOffset dy="13.3543"/>
<feGaussianBlur stdDeviation="6.67716"/>
<feColorMatrix type="matrix" values="0 0 0 0 0 0 0 0 0 0 0 0 0 0 0 0 0 0 0.25 0"/>
<feBlend mode="normal" in2="BackgroundImageFix" result="effect1_dropShadow_888_38928"/>
<feBlend mode="normal" in="SourceGraphic" in2="effect1_dropShadow_888_38928" result="shape"/>
</filter>
<filter id="filter1_d_888_38928" x="137.281" y="220.547" width="231.887" height="231.886" filterUnits="userSpaceOnUse" color-interpolation-filters="sRGB">
<feFlood flood-opacity="0" result="BackgroundImageFix"/>
<feColorMatrix in="SourceAlpha" type="matrix" values="0 0 0 0 0 0 0 0 0 0 0 0 0 0 0 0 0 0 127 0" result="hardAlpha"/>
<feOffset dy="13.3543"/>
<feGaussianBlur stdDeviation="6.67716"/>
<feColorMatrix type="matrix" values="0 0 0 0 0 0 0 0 0 0 0 0 0 0 0 0 0 0 0.25 0"/>
<feBlend mode="normal" in2="BackgroundImageFix" result="effect1_dropShadow_888_38928"/>
<feBlend mode="normal" in="SourceGraphic" in2="effect1_dropShadow_888_38928" result="shape"/>
</filter>
<filter id="filter2_d_888_38928" x="135.321" y="92.0391" width="231.041" height="231.041" filterUnits="userSpaceOnUse" color-interpolation-filters="sRGB">
<feFlood flood-opacity="0" result="BackgroundImageFix"/>
<feColorMatrix in="SourceAlpha" type="matrix" values="0 0 0 0 0 0 0 0 0 0 0 0 0 0 0 0 0 0 127 0" result="hardAlpha"/>
<feOffset dy="13.3543"/>
<feGaussianBlur stdDeviation="6.67716"/>
<feColorMatrix type="matrix" values="0 0 0 0 0 0 0 0 0 0 0 0 0 0 0 0 0 0 0.25 0"/>
<feBlend mode="normal" in2="BackgroundImageFix" result="effect1_dropShadow_888_38928"/>
<feBlend mode="normal" in="SourceGraphic" in2="effect1_dropShadow_888_38928" result="shape"/>
</filter>
<filter id="filter3_d_888_38928" x="197.718" y="40.7233" width="397.114" height="397.115" filterUnits="userSpaceOnUse" color-interpolation-filters="sRGB">
<feFlood flood-opacity="0" result="BackgroundImageFix"/>
<feColorMatrix in="SourceAlpha" type="matrix" values="0 0 0 0 0 0 0 0 0 0 0 0 0 0 0 0 0 0 127 0" result="hardAlpha"/>
<feOffset dy="53.4173"/>
<feGaussianBlur stdDeviation="53.4173"/>
<feColorMatrix type="matrix" values="0 0 0 0 0.2 0 0 0 0 0.2 0 0 0 0 0.2 0 0 0 0.16 0"/>
<feBlend mode="normal" in2="BackgroundImageFix" result="effect1_dropShadow_888_38928"/>
<feBlend mode="normal" in="SourceGraphic" in2="effect1_dropShadow_888_38928" result="shape"/>
</filter>
<filter id="filter4_d_888_38928" x="329.07" y="120.49" width="134.053" height="160.879" filterUnits="userSpaceOnUse" color-interpolation-filters="sRGB">
<feFlood flood-opacity="0" result="BackgroundImageFix"/>
<feColorMatrix in="SourceAlpha" type="matrix" values="0 0 0 0 0 0 0 0 0 0 0 0 0 0 0 0 0 0 127 0" result="hardAlpha"/>
<feOffset dy="13.3543"/>
<feGaussianBlur stdDeviation="6.67716"/>
<feColorMatrix type="matrix" values="0 0 0 0 0 0 0 0 0 0 0 0 0 0 0 0 0 0 0.25 0"/>
<feBlend mode="normal" in2="BackgroundImageFix" result="effect1_dropShadow_888_38928"/>
<feBlend mode="normal" in="SourceGraphic" in2="effect1_dropShadow_888_38928" result="shape"/>
</filter>
<clipPath id="clip0_888_38928">
<rect width="160.252" height="160.252" fill="white" transform="translate(256.28 312.104) rotate(-21.9227)"/>
</clipPath>
<clipPath id="clip1_888_38928">
<rect width="160.252" height="160.252" fill="white" transform="translate(148.676 145.191) rotate(-19.3705)"/>
</clipPath>
</defs>
</svg>
