<svg width="471" height="376" viewBox="0 0 471 376" fill="none" xmlns="http://www.w3.org/2000/svg">
<g filter="url(#filter0_d_112_29378)">
<path d="M88.2731 11.4335L130.435 33.8115L113.872 41.0809L103.656 56.4712L88.2731 11.4335Z" fill="#A36BB2"/>
<path d="M103.971 54.0315L90.189 13.6806L127.942 33.7188L113.435 40.0858L113.143 40.214L112.966 40.4799L103.971 54.0315Z" stroke="white" stroke-width="2.17339"/>
</g>
<rect x="142.097" y="32.1309" width="120.965" height="38.7467" rx="19.3733" fill="#A36BB2"/>
<path d="M161.802 61.2798C159.663 61.2798 158.09 60.3669 157.081 58.5413L158.646 57.4459C159.029 58.124 159.463 58.6195 159.95 58.9325C160.437 59.2281 160.985 59.3759 161.593 59.3759C162.515 59.3759 163.201 59.0977 163.654 58.5413C164.106 57.9675 164.332 57.0286 164.332 55.7246V43.8579H166.522V55.9332C166.522 56.6635 166.427 57.359 166.236 58.0197C166.062 58.663 165.783 59.2281 165.401 59.7149C165.036 60.2018 164.549 60.5843 163.94 60.8625C163.349 61.1407 162.636 61.2798 161.802 61.2798ZM173.863 61.2798C172.803 61.2798 171.916 60.9668 171.203 60.3409C170.508 59.7149 170.16 58.8282 170.16 57.6806C170.16 56.2897 170.777 55.2291 172.012 54.4988C173.246 53.7511 175.219 53.2295 177.932 52.934C177.932 52.5341 177.888 52.1428 177.801 51.7603C177.732 51.3778 177.602 51.0388 177.41 50.7432C177.219 50.4476 176.95 50.2129 176.602 50.039C176.271 49.8477 175.845 49.7521 175.324 49.7521C174.594 49.7521 173.907 49.8912 173.263 50.1694C172.62 50.4476 172.046 50.7606 171.542 51.1083L170.708 49.6217C171.299 49.2392 172.02 48.8741 172.872 48.5263C173.724 48.1612 174.663 47.9786 175.689 47.9786C177.236 47.9786 178.358 48.4568 179.053 49.4131C179.749 50.352 180.097 51.6125 180.097 53.1948V60.9668H178.323L178.141 59.4541H178.062C177.454 59.9583 176.802 60.393 176.106 60.7582C175.411 61.1059 174.663 61.2798 173.863 61.2798ZM174.489 59.5584C175.098 59.5584 175.672 59.4193 176.211 59.1412C176.75 58.8456 177.323 58.4196 177.932 57.8632V54.3423C176.871 54.4814 175.976 54.6466 175.246 54.8378C174.533 55.0291 173.95 55.2551 173.498 55.5159C173.063 55.7767 172.742 56.081 172.533 56.4288C172.342 56.7591 172.246 57.1242 172.246 57.5242C172.246 58.2544 172.464 58.776 172.898 59.089C173.333 59.402 173.863 59.5584 174.489 59.5584ZM187.397 61.2798C186.493 61.2798 185.632 61.1146 184.815 60.7842C183.998 60.4539 183.285 60.0366 182.676 59.5324L183.745 58.0979C184.302 58.55 184.867 58.9151 185.441 59.1933C186.032 59.4715 186.71 59.6106 187.475 59.6106C188.31 59.6106 188.935 59.4193 189.353 59.0368C189.77 58.6543 189.979 58.1849 189.979 57.6285C189.979 57.2981 189.892 57.0112 189.718 56.7678C189.544 56.5244 189.318 56.3157 189.04 56.1419C188.779 55.9506 188.475 55.7854 188.127 55.6463C187.779 55.5072 187.431 55.3681 187.084 55.2291C186.632 55.0726 186.18 54.8987 185.728 54.7074C185.275 54.4988 184.867 54.2554 184.502 53.9772C184.154 53.6816 183.867 53.3426 183.641 52.96C183.415 52.5775 183.302 52.1168 183.302 51.5778C183.302 51.0735 183.398 50.6041 183.589 50.1694C183.798 49.7173 184.084 49.3348 184.45 49.0219C184.832 48.6915 185.293 48.4394 185.832 48.2655C186.371 48.0743 186.979 47.9786 187.658 47.9786C188.457 47.9786 189.188 48.1177 189.848 48.3959C190.526 48.6741 191.109 49.0132 191.596 49.4131L190.579 50.7693C190.144 50.4389 189.692 50.1694 189.222 49.9608C188.753 49.7521 188.24 49.6478 187.684 49.6478C186.884 49.6478 186.293 49.8304 185.91 50.1955C185.545 50.5606 185.362 50.9866 185.362 51.4734C185.362 51.769 185.441 52.0298 185.597 52.2559C185.754 52.4645 185.962 52.6558 186.223 52.8296C186.484 52.9861 186.779 53.1339 187.11 53.273C187.458 53.3947 187.814 53.5251 188.179 53.6642C188.631 53.8381 189.083 54.0206 189.535 54.2119C190.005 54.4032 190.422 54.6466 190.787 54.9422C191.152 55.2204 191.448 55.5681 191.674 55.9854C191.917 56.4027 192.039 56.9069 192.039 57.4981C192.039 58.0197 191.935 58.5065 191.726 58.9586C191.535 59.4107 191.239 59.8106 190.839 60.1583C190.457 60.506 189.97 60.7755 189.379 60.9668C188.805 61.1754 188.144 61.2798 187.397 61.2798ZM195.011 60.9668V48.2916H196.784L196.967 50.1172H197.045C197.602 49.5087 198.201 49.0045 198.845 48.6046C199.505 48.1873 200.218 47.9786 200.983 47.9786C201.957 47.9786 202.713 48.196 203.252 48.6306C203.809 49.0479 204.217 49.6391 204.478 50.4041C205.139 49.6739 205.8 49.0914 206.46 48.6567C207.138 48.2047 207.869 47.9786 208.651 47.9786C209.955 47.9786 210.92 48.3959 211.546 49.2305C212.189 50.0651 212.511 51.2996 212.511 52.934V60.9668H210.372V53.2208C210.372 52.0211 210.181 51.1605 209.799 50.6389C209.416 50.0999 208.825 49.8304 208.025 49.8304C207.069 49.8304 206.008 50.4824 204.843 51.7864V60.9668H202.705V53.2208C202.705 52.0211 202.513 51.1605 202.131 50.6389C201.748 50.0999 201.148 49.8304 200.331 49.8304C199.375 49.8304 198.314 50.4824 197.149 51.7864V60.9668H195.011ZM216.634 60.9668V48.2916H218.773V60.9668H216.634ZM217.73 45.6835C217.312 45.6835 216.956 45.5531 216.66 45.2923C216.382 45.0315 216.243 44.7012 216.243 44.3013C216.243 43.884 216.382 43.5536 216.66 43.3102C216.956 43.0494 217.312 42.919 217.73 42.919C218.147 42.919 218.495 43.0494 218.773 43.3102C219.069 43.5536 219.216 43.884 219.216 44.3013C219.216 44.7012 219.069 45.0315 218.773 45.2923C218.495 45.5531 218.147 45.6835 217.73 45.6835ZM223.053 60.9668V48.2916H224.826L225.009 50.1172H225.087C225.695 49.5087 226.33 49.0045 226.991 48.6046C227.669 48.1873 228.451 47.9786 229.338 47.9786C230.677 47.9786 231.651 48.3959 232.259 49.2305C232.885 50.0651 233.198 51.2996 233.198 52.934V60.9668H231.059V53.2208C231.059 52.0211 230.868 51.1605 230.486 50.6389C230.103 50.0999 229.495 49.8304 228.66 49.8304C227.999 49.8304 227.417 49.9955 226.913 50.3259C226.408 50.6562 225.835 51.1431 225.191 51.7864V60.9668H223.053ZM242.453 61.2798C241.601 61.2798 240.802 61.132 240.054 60.8364C239.324 60.5234 238.68 60.0887 238.124 59.5324C237.585 58.9586 237.159 58.2631 236.846 57.4459C236.533 56.6287 236.377 55.6985 236.377 54.6553C236.377 53.6121 236.533 52.6818 236.846 51.8646C237.176 51.0301 237.602 50.3259 238.124 49.7521C238.663 49.1783 239.272 48.7437 239.95 48.4481C240.628 48.1351 241.332 47.9786 242.062 47.9786C242.862 47.9786 243.575 48.1177 244.201 48.3959C244.844 48.6741 245.374 49.074 245.792 49.5956C246.226 50.1172 246.557 50.7432 246.783 51.4734C247.009 52.2037 247.122 53.0209 247.122 53.925C247.122 54.1511 247.113 54.3771 247.096 54.6031C247.096 54.8118 247.078 54.9943 247.044 55.1508H238.489C238.576 56.507 238.993 57.585 239.741 58.3848C240.506 59.1672 241.497 59.5584 242.714 59.5584C243.323 59.5584 243.879 59.4715 244.383 59.2976C244.905 59.1064 245.4 58.863 245.87 58.5674L246.626 59.9757C246.07 60.3235 245.453 60.6277 244.775 60.8886C244.096 61.1494 243.323 61.2798 242.453 61.2798ZM238.463 53.6121H245.244C245.244 52.3254 244.966 51.3517 244.409 50.691C243.87 50.0129 243.105 49.6739 242.114 49.6739C241.662 49.6739 241.228 49.7608 240.81 49.9347C240.41 50.1086 240.045 50.3694 239.715 50.7171C239.385 51.0475 239.106 51.4561 238.88 51.9429C238.672 52.4297 238.533 52.9861 238.463 53.6121Z" fill="white"/>
<g clip-path="url(#clip0_112_29378)" filter="url(#filter1_d_112_29378)">
<path d="M267.781 205.937L259.213 142.327C258.267 135.304 252.091 130.333 245.012 131.287C240.625 131.878 232.531 135.559 233.902 145.736L230.474 120.292C229.528 113.27 223.353 108.299 216.274 109.252C211.996 109.828 203.792 113.524 205.163 123.702L202.878 106.739C201.933 99.7165 195.757 94.7455 188.678 95.6991C181.591 96.6537 176.622 103.126 177.568 110.148L179.852 127.111C178.482 116.934 169.761 115.518 165.483 116.094C158.396 117.049 153.617 123.659 154.564 130.69L164.252 202.612" fill="white"/>
<path d="M267.781 205.937L259.213 142.327C258.267 135.304 252.091 130.333 245.012 131.287C240.625 131.878 232.531 135.559 233.902 145.736L230.474 120.292C229.528 113.27 223.353 108.299 216.274 109.252C211.996 109.828 203.792 113.524 205.163 123.702L202.878 106.739C201.933 99.7165 195.757 94.7455 188.678 95.6991C181.591 96.6537 176.622 103.126 177.568 110.148L179.852 127.111C178.482 116.934 169.761 115.518 165.483 116.094C158.396 117.049 153.617 123.659 154.564 130.69L164.252 202.612" stroke="#A36BB2" stroke-width="17.0263" stroke-linecap="round" stroke-linejoin="round"/>
<path d="M179.832 126.953L186.082 173.356Z" fill="white"/>
<path d="M179.832 126.953L186.082 173.356" stroke="#A36BB2" stroke-width="17.0263" stroke-linecap="round" stroke-linejoin="round"/>
<path d="M205.143 123.543L211.394 169.946Z" fill="white"/>
<path d="M205.143 123.543L211.394 169.946" stroke="#A36BB2" stroke-width="17.0263" stroke-linecap="round" stroke-linejoin="round"/>
<path d="M230.454 120.135L236.704 166.538Z" fill="white"/>
<path d="M230.454 120.135L236.704 166.538" stroke="#A36BB2" stroke-width="17.0263" stroke-linecap="round" stroke-linejoin="round"/>
<path d="M267.696 205.312C272.242 239.06 248.074 259.496 215.456 263.889C182.839 268.283 170.481 261.357 139.488 222.582L123.273 202.389C117.764 195.675 120.104 185.687 128.076 181.865C130.682 180.607 133.611 180.181 136.467 180.645C139.323 181.108 141.968 182.439 144.042 184.456L164.217 202.354" fill="white"/>
<path d="M267.696 205.312C272.242 239.06 248.074 259.496 215.456 263.889C182.839 268.283 170.481 261.357 139.488 222.582L123.273 202.389C117.764 195.675 120.104 185.687 128.076 181.865C130.682 180.607 133.611 180.181 136.467 180.645C139.323 181.108 141.968 182.439 144.042 184.456L164.217 202.354" stroke="#A36BB2" stroke-width="17.0263" stroke-linecap="round" stroke-linejoin="round"/>
</g>
<g clip-path="url(#clip1_112_29378)" filter="url(#filter2_d_112_29378)">
<path d="M342.538 277.055L362.749 208.161C364.98 200.556 360.97 192.675 353.35 190.439C348.627 189.054 338.736 189.145 335.502 200.168L343.587 172.611C345.818 165.005 341.807 157.124 334.187 154.889C329.582 153.538 319.573 153.594 316.339 164.617L321.729 146.246C323.96 138.64 319.949 130.759 312.329 128.524C304.7 126.286 296.713 130.647 294.482 138.252L289.092 156.624C292.326 145.601 284.116 140.2 279.511 138.849C271.882 136.611 264.025 141.199 261.791 148.814L238.94 226.71" fill="white"/>
<path d="M342.538 277.055L362.749 208.161C364.98 200.556 360.97 192.675 353.35 190.439C348.627 189.054 338.736 189.145 335.502 200.168L343.587 172.611C345.818 165.005 341.807 157.124 334.187 154.889C329.582 153.538 319.573 153.594 316.339 164.617L321.729 146.246C323.96 138.64 319.949 130.759 312.329 128.524C304.7 126.286 296.713 130.647 294.482 138.252L289.092 156.624C292.326 145.601 284.116 140.2 279.511 138.849C271.882 136.611 264.025 141.199 261.791 148.814L238.94 226.71" stroke="#33A787" stroke-width="18.9302" stroke-linecap="round" stroke-linejoin="round"/>
<path d="M289.198 156.262L274.544 206.215Z" fill="white"/>
<path d="M289.198 156.262L274.544 206.215" stroke="#33A787" stroke-width="18.9302" stroke-linecap="round" stroke-linejoin="round"/>
<path d="M316.445 164.256L301.79 214.209Z" fill="white"/>
<path d="M316.445 164.256L301.79 214.209" stroke="#33A787" stroke-width="18.9302" stroke-linecap="round" stroke-linejoin="round"/>
<path d="M343.692 172.248L329.037 222.201Z" fill="white"/>
<path d="M343.692 172.248L329.037 222.201" stroke="#33A787" stroke-width="18.9302" stroke-linecap="round" stroke-linejoin="round"/>
<path d="M342.962 275.606C332.304 311.936 298.511 321.75 263.398 311.449C228.286 301.148 218.871 288.522 204.946 235.117L197.619 207.272C195.063 197.96 201.96 188.876 211.786 188.602C215.001 188.505 218.169 189.398 220.859 191.161C223.55 192.925 225.633 195.473 226.827 198.46L239.214 225.768" fill="white"/>
<path d="M342.962 275.606C332.304 311.936 298.511 321.75 263.398 311.449C228.286 301.148 218.871 288.522 204.946 235.117L197.619 207.272C195.063 197.96 201.96 188.876 211.786 188.602C215.001 188.505 218.169 189.398 220.859 191.161C223.55 192.925 225.633 195.473 226.827 198.46L239.214 225.768" stroke="#33A787" stroke-width="18.9302" stroke-linecap="round" stroke-linejoin="round"/>
</g>
<g filter="url(#filter3_d_112_29378)">
<path d="M327.89 301.102L368.834 322.834L352.749 329.894L342.829 344.84L327.89 301.102Z" fill="#33A787"/>
<path d="M343.135 342.471L329.75 303.285L366.413 322.744L352.325 328.927L352.041 329.052L351.87 329.31L343.135 342.471Z" stroke="white" stroke-width="2.11064"/>
</g>
<rect x="379.86" y="321.74" width="91.08" height="37.26" rx="18.63" fill="#33A787"/>
<path d="M408.461 340.205L407.676 342.738H412.665L411.88 340.205C411.576 339.276 411.289 338.356 411.019 337.444C410.749 336.515 410.479 335.57 410.209 334.607H410.107C409.854 335.57 409.592 336.515 409.322 337.444C409.052 338.356 408.765 339.276 408.461 340.205ZM403.396 349.5L409.018 332.885H411.399L417.022 349.5H414.768L413.197 344.434H407.144L405.548 349.5H403.396ZM421.377 349.804C420.583 349.804 420.018 349.568 419.68 349.095C419.342 348.622 419.173 347.93 419.173 347.018V331.467H421.25V347.17C421.25 347.508 421.309 347.744 421.427 347.879C421.546 348.014 421.681 348.082 421.833 348.082C421.9 348.082 421.959 348.082 422.01 348.082C422.078 348.082 422.17 348.065 422.289 348.031L422.567 349.601C422.432 349.669 422.272 349.72 422.086 349.753C421.9 349.787 421.664 349.804 421.377 349.804ZM430.618 349.804C429.791 349.804 429.014 349.66 428.288 349.373C427.579 349.069 426.954 348.647 426.414 348.107C425.891 347.55 425.477 346.874 425.173 346.081C424.869 345.287 424.717 344.384 424.717 343.371C424.717 342.358 424.869 341.454 425.173 340.661C425.494 339.85 425.908 339.166 426.414 338.609C426.938 338.052 427.528 337.63 428.187 337.343C428.846 337.039 429.529 336.887 430.239 336.887C431.015 336.887 431.708 337.022 432.315 337.292C432.94 337.562 433.455 337.951 433.86 338.457C434.283 338.964 434.603 339.572 434.823 340.281C435.042 340.99 435.152 341.784 435.152 342.662C435.152 342.881 435.144 343.101 435.127 343.32C435.127 343.523 435.11 343.7 435.076 343.852H426.769C426.853 345.169 427.258 346.216 427.984 346.993C428.727 347.752 429.69 348.132 430.872 348.132C431.463 348.132 432.003 348.048 432.493 347.879C432.999 347.693 433.48 347.457 433.936 347.17L434.671 348.538C434.131 348.875 433.531 349.171 432.873 349.424C432.214 349.677 431.463 349.804 430.618 349.804ZM426.743 342.358H433.329C433.329 341.108 433.058 340.163 432.518 339.521C431.995 338.862 431.252 338.533 430.289 338.533C429.85 338.533 429.428 338.618 429.023 338.786C428.634 338.955 428.28 339.209 427.959 339.546C427.638 339.867 427.368 340.264 427.149 340.737C426.946 341.209 426.811 341.75 426.743 342.358ZM436.298 349.5L440.325 343.067L436.602 337.191H438.856L440.503 339.901C440.689 340.239 440.883 340.585 441.085 340.939C441.288 341.277 441.499 341.615 441.719 341.952H441.82C442.006 341.615 442.191 341.277 442.377 340.939C442.563 340.585 442.748 340.239 442.934 339.901L444.429 337.191H446.607L442.884 343.295L446.885 349.5H444.631L442.833 346.638C442.613 346.267 442.394 345.895 442.174 345.524C441.955 345.152 441.727 344.789 441.491 344.434H441.389C441.17 344.789 440.959 345.152 440.756 345.524C440.553 345.878 440.351 346.25 440.148 346.638L438.477 349.5H436.298Z" fill="white"/>
<path d="M141.076 307.953C131.819 311.811 121.078 315.428 113.522 322.228C104.308 330.521 109.76 344.051 116.857 351.829C122.801 358.344 130.351 360.29 138.678 358.44C144.104 357.234 144.142 354.402 141.076 349.957C132.933 338.15 107.121 332.777 94.0411 336.502C76.9538 341.368 81.3991 356.03 87.3719 367.976" stroke="#E5616D" stroke-width="5" stroke-linecap="round"/>
<path d="M409.944 4.83014C415.909 7.78183 426.338 12.7814 428.326 19.9118C431.762 32.2425 417.312 52.3787 406.504 57.2277C397.89 61.092 369.496 62.8642 371.438 47.3663C371.744 44.9274 373.66 41.7805 376.314 41.3436C380.911 40.5866 382.207 50.6275 382.551 53.4129C386.156 82.6109 357.887 100.093 334.607 108.448" stroke="#F2994A" stroke-width="5" stroke-linecap="round"/>
<path d="M109.862 294.375L90.2378 293.109" stroke="#BBD8FF" stroke-width="5" stroke-linecap="round"/>
<path d="M152.907 319.062C151.694 322.253 150.401 325.4 149.109 328.558" stroke="#F2994A" stroke-width="5" stroke-linecap="round"/>
<path d="M310 95.7891L313.798 73" stroke="#BBD8FF" stroke-width="10" stroke-linecap="round"/>
<path d="M357 127.624C369.214 119.903 382.01 114.293 394.981 108" stroke="#2F80ED" stroke-width="10" stroke-linecap="round"/>
<path d="M16.1115 209.564C28.2738 227.459 36.9789 246.41 46.9449 265.548C49.114 269.713 53.5003 279.594 51.8119 269.848C49.488 256.434 50.6948 241.689 54.2625 228.61C54.6936 227.029 64.1291 208.447 63.2562 207.569C60.7162 205.013 40.9178 220.147 36.6669 221.651C30.9747 223.663 27.3923 226.186 22.1774 230.116C17.9887 233.273 5.71833 241.352 18.5213 238.259C28.6552 235.811 38.8799 233.398 49.3675 233.237C55.1688 233.148 62.3575 232.709 67.8758 233.831C81.3758 236.575 40.4975 228.994 27.8523 223.528" stroke="#FEE133" stroke-width="14.9772" stroke-linecap="round" stroke-linejoin="round"/>
<path d="M436.987 174.934C430.13 170.723 424.284 165.626 417.982 160.659C416.61 159.578 413.613 156.897 415.674 159.944C418.511 164.138 420.354 169.322 421.142 174.302C421.237 174.904 420.875 182.646 421.305 182.811C422.557 183.289 426.959 175.134 428.171 173.975C429.794 172.423 430.623 171.02 431.791 168.891C432.73 167.181 435.657 162.568 431.788 165.572C428.725 167.949 425.626 170.329 422.095 171.986C420.141 172.902 417.771 174.148 415.728 174.611C410.731 175.742 425.751 172.07 430.873 171.992" stroke="#FEE133" stroke-width="9.21766" stroke-linecap="round" stroke-linejoin="round"/>
<path d="M193.377 340.077C199.288 344.048 204.882 348.494 210.548 352.801C210.152 352.919 209.828 353.389 209.48 353.587C209.006 353.856 208.497 354.364 208.142 354.765C207.044 356 205.839 357.125 204.713 358.334C203.555 359.578 202.371 360.81 201.071 361.906C198.303 364.243 195.589 366.671 192.74 368.911C191.195 370.125 189.628 371.313 188.071 372.513C187.72 372.784 187.224 373.265 186.781 373.451C186.664 373.5 186.609 373.516 186.578 373.374C186.479 372.917 186.588 372.362 186.603 371.892C186.614 371.533 186.595 371.158 186.655 370.803C186.892 369.392 186.664 367.902 186.662 366.479C186.651 359.97 186.94 353.456 186.988 346.947C187.01 343.939 186.859 340.913 186.479 337.927C186.388 337.214 186.237 336.502 186.172 335.785C186.155 335.598 186.154 335.612 186.291 335.699C188.631 337.193 191.07 338.528 193.377 340.077Z" stroke="#F2994A" stroke-width="5" stroke-linecap="round" stroke-linejoin="round"/>
<defs>
<filter id="filter0_d_112_29378" x="79.5796" y="11.4336" width="59.5485" height="62.4242" filterUnits="userSpaceOnUse" color-interpolation-filters="sRGB">
<feFlood flood-opacity="0" result="BackgroundImageFix"/>
<feColorMatrix in="SourceAlpha" type="matrix" values="0 0 0 0 0 0 0 0 0 0 0 0 0 0 0 0 0 0 127 0" result="hardAlpha"/>
<feOffset dy="8.69355"/>
<feGaussianBlur stdDeviation="4.34678"/>
<feColorMatrix type="matrix" values="0 0 0 0 0 0 0 0 0 0 0 0 0 0 0 0 0 0 0.25 0"/>
<feBlend mode="normal" in2="BackgroundImageFix" result="effect1_dropShadow_112_29378"/>
<feBlend mode="normal" in="SourceGraphic" in2="effect1_dropShadow_112_29378" result="shape"/>
</filter>
<filter id="filter1_d_112_29378" x="64.7749" y="57.7754" width="261.763" height="261.764" filterUnits="userSpaceOnUse" color-interpolation-filters="sRGB">
<feFlood flood-opacity="0" result="BackgroundImageFix"/>
<feColorMatrix in="SourceAlpha" type="matrix" values="0 0 0 0 0 0 0 0 0 0 0 0 0 0 0 0 0 0 127 0" result="hardAlpha"/>
<feOffset dy="8"/>
<feGaussianBlur stdDeviation="8"/>
<feColorMatrix type="matrix" values="0 0 0 0 0.2 0 0 0 0 0.2 0 0 0 0 0.2 0 0 0 0.16 0"/>
<feBlend mode="normal" in2="BackgroundImageFix" result="effect1_dropShadow_112_29378"/>
<feBlend mode="normal" in="SourceGraphic" in2="effect1_dropShadow_112_29378" result="shape"/>
</filter>
<filter id="filter2_d_112_29378" x="124" y="69" width="313.924" height="313.924" filterUnits="userSpaceOnUse" color-interpolation-filters="sRGB">
<feFlood flood-opacity="0" result="BackgroundImageFix"/>
<feColorMatrix in="SourceAlpha" type="matrix" values="0 0 0 0 0 0 0 0 0 0 0 0 0 0 0 0 0 0 127 0" result="hardAlpha"/>
<feOffset dy="8"/>
<feGaussianBlur stdDeviation="8"/>
<feColorMatrix type="matrix" values="0 0 0 0 0.2 0 0 0 0 0.2 0 0 0 0 0.2 0 0 0 0.16 0"/>
<feBlend mode="normal" in2="BackgroundImageFix" result="effect1_dropShadow_112_29378"/>
<feBlend mode="normal" in="SourceGraphic" in2="effect1_dropShadow_112_29378" result="shape"/>
</filter>
<filter id="filter3_d_112_29378" x="319.447" y="301.102" width="57.8295" height="60.6234" filterUnits="userSpaceOnUse" color-interpolation-filters="sRGB">
<feFlood flood-opacity="0" result="BackgroundImageFix"/>
<feColorMatrix in="SourceAlpha" type="matrix" values="0 0 0 0 0 0 0 0 0 0 0 0 0 0 0 0 0 0 127 0" result="hardAlpha"/>
<feOffset dy="8.44256"/>
<feGaussianBlur stdDeviation="4.22128"/>
<feColorMatrix type="matrix" values="0 0 0 0 0 0 0 0 0 0 0 0 0 0 0 0 0 0 0.25 0"/>
<feBlend mode="normal" in2="BackgroundImageFix" result="effect1_dropShadow_112_29378"/>
<feBlend mode="normal" in="SourceGraphic" in2="effect1_dropShadow_112_29378" result="shape"/>
</filter>
<clipPath id="clip0_112_29378">
<rect width="204.316" height="204.316" fill="white" transform="translate(80.7749 93.0508) rotate(-7.67169)"/>
</clipPath>
<clipPath id="clip1_112_29378">
<rect width="227.163" height="227.163" fill="white" transform="translate(203.947 77) rotate(16.3499)"/>
</clipPath>
</defs>
</svg>
